<svg width="2713" height="1169" viewBox="0 0 2713 1169" fill="none" xmlns="http://www.w3.org/2000/svg">
<path d="M516.5 1168.24C465.277 1160.9 424.381 1140.62 390.434 1105.72C369.12 1083.8 352.389 1057.51 343.847 1032.5L341.5 1025.63L328.5 1026.3C321.35 1026.67 312.8 1027.51 309.5 1028.17L303.5 1029.37L303.196 1033.54C303.029 1035.84 302.313 1038.19 301.604 1038.78C299.79 1040.29 228.059 1036.21 180.043 1031.87C152.863 1029.42 124.567 1024.24 73 1012.28C34.11 1003.26 21.081 998.365 10.6774 988.857C0.970953 979.986 -0.00496769 974.416 6.54498 965.271C8.47635 962.575 11.0084 957.263 12.1717 953.467C14.0392 947.374 14.2166 945.032 13.6869 933.467C13.0542 919.654 9.02174 889.902 6.29016 878.893C5.30404 874.919 3.75824 871.508 2.3356 870.166L0 867.964L0.0596085 838.166C0.0923985 821.778 0.464114 806.277 0.885647 803.72C1.79727 798.191 5.37838 794.526 11.759 792.591L16.018 791.3L16.4092 781.554L16.8004 771.807L12.9002 769.818C9.4145 768.039 9.00126 767.432 9.01187 764.098C9.02535 759.861 11.081 751.475 13.0016 747.823C13.7111 746.473 17.3149 741.319 21.0099 736.369C27.5348 727.628 41 706.415 41 704.876C41 704.457 41.6335 703.588 42.4079 702.945C45.5423 700.344 47.0822 695.2 46.0793 690.68C44.7817 684.831 46.6806 674.627 51.9988 658.869C57.469 642.66 63.6448 630.762 70.2268 623.753C76.247 617.341 78.9957 615.485 84.7784 613.928C88.0976 613.034 91.6898 610.01 103.688 598.008C111.835 589.858 122.55 580.186 127.5 576.515C144.183 564.14 188.596 544.06 224 532.884C225.375 532.45 235.725 529.165 247 525.584C288.916 512.271 310.402 506.262 362.5 493.282C413.094 480.678 440.643 474.57 506.586 461.34L550.673 452.495L559.586 453.932C565.587 454.899 576.506 455.369 593 455.369H617.5L638.5 438.932C650.05 429.893 664.45 418.619 670.5 413.879C682.255 404.67 692.884 396.631 715.464 379.869C723.243 374.094 733.859 366.133 739.054 362.178C752.412 352.01 792.212 322.764 799.354 317.869C800.558 317.044 807.158 312.344 814.021 307.424C840.477 288.461 903.033 245.424 936 223.506C956.192 210.081 999.968 181.318 1009.19 175.413C1079.94 130.14 1114.32 109.439 1142.5 95.1516C1183.53 74.352 1230.28 55.8661 1267 45.9273C1289.88 39.7324 1305.63 35.6909 1312 34.3751C1398.51 16.5109 1470.4 9.97537 1647.5 3.87491C1728.42 1.08753 1754.34 0.681788 1884 0.172748C2018 -0.353322 2083.13 0.257561 2175 2.90201C2319.7 7.06732 2469.82 16.6498 2543 26.392C2589.96 32.6436 2604.42 34.9142 2606.67 36.3872C2610.15 38.6654 2620.64 52.2417 2621.88 56.0638C2623.18 60.0597 2622.02 65.9346 2616.51 83.3687C2614.43 89.9687 2612.72 96.0437 2612.72 96.8687C2612.72 97.6936 2615.47 109.394 2618.83 122.869C2627.61 158.024 2638.97 211.393 2645.43 247.869C2648.5 265.194 2651.48 281.844 2652.04 284.869C2655.54 303.632 2664.43 371.951 2668.59 412.024L2669.17 417.679L2673.69 415.682C2682.03 411.993 2688.09 415.2 2693.7 426.261C2696.86 432.504 2697.23 439.853 2694.53 442.84C2692.61 444.958 2683.79 448.079 2676.11 449.36L2671.72 450.091L2672.33 458.23C2674.06 481.252 2674.2 490.366 2672.85 492.132C2672.03 493.204 2669.15 494.277 2665.5 494.869C2661.83 495.464 2659 496.52 2658.22 497.589C2657.2 498.972 2657 511.029 2657.22 555.353L2657.5 611.369L2661.33 622.369C2663.44 628.419 2666.25 635.338 2667.58 637.745C2669.04 640.377 2670 643.763 2670.01 646.245C2670.02 652.107 2672.52 667.896 2675.03 677.869C2676.21 682.544 2677.56 688.169 2678.04 690.369C2679.97 699.193 2678.87 750.603 2675.51 809.369C2674.69 823.669 2673.9 837.589 2673.76 840.302C2673.51 845.041 2673.62 845.263 2676.5 845.936C2678.15 846.321 2682.79 847.399 2686.81 848.332C2697.15 850.732 2704.01 854.036 2708.12 858.583L2711.67 862.51L2712.3 882.439C2713.32 915 2710.95 929.796 2702.78 941.694C2697.53 949.347 2673.52 973.269 2668.16 976.187C2661.85 979.62 2653.57 981.305 2625.5 984.866C2602.07 987.839 2530.83 995.856 2510 997.864C2503.68 998.474 2490.04 999.878 2479.69 1000.98C2469.35 1002.09 2460.4 1002.83 2459.81 1002.64C2459.22 1002.44 2458.23 1000.72 2457.62 998.824C2456.53 995.457 2456.28 995.325 2448 993.659C2443.32 992.718 2436.46 991.641 2432.75 991.265L2426 990.581V993.318C2426 1003.82 2417.69 1031.37 2409.09 1049.37C2398.57 1071.38 2387.91 1086.75 2371.01 1104.23C2343.36 1132.85 2314.42 1150.41 2276.78 1161.41C2244.82 1170.75 2204.3 1171.49 2171.92 1163.33C2118.83 1149.95 2072.36 1116.48 2044.27 1071.37C2032.5 1052.48 2020.71 1023.72 2017 1004.87C2016.29 1001.29 2015.39 997.998 2014.98 997.545C2014.3 996.774 1987.61 999.371 1986.01 1000.36C1985.6 1000.62 1985.02 1002.69 1984.71 1004.97C1984.41 1007.25 1983.7 1009.57 1983.14 1010.13C1982.13 1011.14 1971.46 1011.34 1778 1013.84C1732.62 1014.42 1664.9 1015.34 1627.5 1015.88C1590.1 1016.42 1519.68 1017.31 1471 1017.86C1387.43 1018.81 1336.02 1019.45 1147 1021.88C980.042 1024.04 839.354 1025.79 810.535 1026.07L780.569 1026.37L779.434 1024.1C778.809 1022.85 778.08 1021.62 777.814 1021.35C777.13 1020.67 758.115 1018.14 748 1017.38L739.5 1016.75L735.617 1028.87C722.258 1070.57 690.702 1110.79 651.467 1136.13C630.32 1149.78 600.055 1161.61 574 1166.4C564.871 1168.07 524.392 1169.37 516.5 1168.24ZM574.229 1160.93C630.767 1149.75 676.912 1119.15 708.486 1071.89C730.548 1038.87 741.316 1002.5 741.208 961.369C741.139 935.181 737.962 916.287 729.591 892.29C714.481 848.973 683.837 811.133 644 786.601C594.781 756.292 531.994 748.605 478.5 766.341C400.452 792.216 347.166 857.589 337.934 938.79C336.211 953.944 337.229 984.34 339.946 998.869C346.089 1031.71 362.617 1066.2 384.47 1091.77C417.885 1130.87 465.578 1156.63 516 1162.83C529.016 1164.42 561.966 1163.35 574.229 1160.93ZM525.485 1102.89C464.508 1096.43 414.453 1052.42 400.353 992.869C396.898 978.275 396.073 954.976 398.442 938.904C400.384 925.728 406.152 907.5 412.16 895.551C428.664 862.725 459.478 835.823 493.19 824.807C510.216 819.243 520.788 817.591 539.5 817.572C563.576 817.547 578.661 820.878 599.719 830.868C638.789 849.404 668.172 885.948 677.527 927.644C687.437 971.808 678.19 1013.88 650.732 1049.57C644.36 1057.85 628.711 1072.49 619.959 1078.37C610.045 1085.02 594.198 1092.93 583.959 1096.32C565.945 1102.3 543.599 1104.81 525.485 1102.89ZM566.199 1095.89C605.237 1087.67 638.55 1063.62 658.35 1029.37C690.052 974.534 679.402 903.505 632.853 859.328C624.656 851.548 610.368 841.59 599.682 836.209C583.099 827.858 558.271 821.858 540.372 821.877C488.814 821.931 440.86 850.989 417.632 896.253C412.632 905.995 408.576 916.064 406.396 924.145C402 940.44 400.734 966.514 403.509 983.621C409.4 1019.95 431.991 1054.82 462.887 1075.28C480.823 1087.15 505.139 1095.93 526.5 1098.24C535.098 1099.17 556.716 1097.89 566.199 1095.89ZM2243.03 1162.84C2294.72 1156.54 2341.08 1131.75 2374.8 1092.37C2386.84 1078.31 2395.66 1064.92 2403 1049.56C2431.29 990.366 2430.47 926.115 2400.69 867.369C2376 818.664 2334.62 783.712 2281.27 766.486C2267.34 761.988 2258.97 760.197 2243.28 758.362C2198.42 753.114 2154.73 762.8 2115.08 786.785C2070.32 813.863 2037.54 858.232 2024.5 909.369C2015.51 944.63 2015.94 983.25 2025.68 1017.37C2041.08 1071.26 2082.29 1119.63 2133.5 1143.92C2153.3 1153.31 2177.63 1160.52 2197 1162.75C2207.82 1163.99 2233.15 1164.04 2243.03 1162.84ZM2206.27 1102.91C2180.76 1099.98 2156.41 1090.34 2136 1075.09C2079.57 1032.92 2061.92 956.275 2094.36 894.369C2119.72 846.003 2166.73 817.364 2220.5 817.529C2237.59 817.582 2249.03 819.289 2263.72 823.981C2313.02 839.723 2348.68 879.455 2360.11 931.369C2362.68 943.03 2363.66 966.353 2362.09 978.369C2354.85 1033.66 2317.71 1078.65 2264.68 1096.37C2247 1102.28 2223.62 1104.9 2206.27 1102.91ZM2245.78 1096.37C2256.28 1094.35 2272 1088.9 2282.41 1083.66C2319.52 1065 2346.16 1030.32 2355.58 988.369C2356.45 984.5 2357.39 974.21 2357.69 965.369C2358.14 951.881 2357.89 947.546 2356.13 937.761C2349.66 901.89 2330.93 870.847 2302.87 849.511C2287.28 837.654 2266.2 828.533 2244.46 824.244C2231.37 821.661 2207.83 821.892 2194.31 824.737C2138.93 836.393 2097.39 878.068 2085.8 933.623C2083.98 942.329 2083.56 947.595 2083.56 961.369C2083.57 986.347 2087.35 1002.02 2098.63 1023.87C2105.7 1037.58 2112.1 1046.13 2124.44 1058.4C2146.73 1080.55 2175.88 1094.75 2205.5 1097.89C2216.36 1099.04 2235.72 1098.31 2245.78 1096.37ZM297.828 1030.24C297.526 1027.6 297.143 1027.35 293 1027.12C239.936 1024.19 186.668 1020.11 152 1016.32C130.771 1013.99 85.314 1007.81 74.6135 1005.79C67.3696 1004.42 64.7584 1004.84 70.5 1006.45C78.1629 1008.59 140.522 1021.63 151.119 1023.3C174.568 1027 295.104 1035.66 297.328 1033.8C297.784 1033.42 298.009 1031.82 297.828 1030.24ZM316.5 1022.28C322 1021.53 329.586 1020.9 333.357 1020.89C339.188 1020.87 340.123 1020.63 339.608 1019.29C337.941 1014.95 334.769 1000.63 333.358 991.091C331.149 976.151 331.16 947.774 333.38 932.369C340.359 883.945 360.806 843.564 395.175 810.333C412.59 793.494 428.946 782.091 450.5 771.763C493.134 751.334 543.308 746.296 589.046 757.851C617.832 765.124 647.559 780.01 670 798.39C695.009 818.873 717.057 848.022 729.363 876.872C747.152 918.573 751.281 963.968 741.386 1009.02L740.803 1011.68L748.651 1012.33C752.968 1012.69 761.126 1013.63 766.78 1014.43C772.434 1015.22 777.272 1015.87 777.53 1015.87C779.775 1015.87 774.465 941.168 770.446 916.188C764.731 880.675 757.641 857.995 743.363 829.556C731.737 806.397 719.418 789.373 700.713 770.613C656.397 726.167 589.309 701.474 524.637 705.802C458.96 710.198 402.699 738.158 361.514 786.869C354.383 795.303 341.676 814.48 335.582 826.005C322.78 850.216 313.898 877.342 308.521 908.654C304.83 930.143 303.843 944.551 303.306 984.771C302.782 1023.93 302.823 1025.15 304.633 1024.41C305.66 1023.99 311 1023.03 316.5 1022.28ZM297.779 1010.62L297.5 997.369L252 996.819C226.975 996.517 205.693 995.899 204.708 995.446C201.505 993.974 203.501 992.413 211.577 990.075C225.935 985.918 236.618 984.881 265.125 984.875C279.769 984.875 293.156 984.587 294.875 984.244L298 983.619L298.01 969.994C298.035 937.342 304.158 895.015 312.99 866.437C327.621 819.099 357.739 775.107 393.703 748.545C398.25 745.186 401.639 742.136 401.235 741.765C399.877 740.521 371.708 727.869 370.296 727.869C368.264 727.869 339.48 756.98 332.229 766.369C293.366 816.688 275.012 872.119 269.484 955.869C268.758 966.865 268.262 969.148 266.795 968.242C265.565 967.482 266.269 953.052 268.593 931.369C272.129 898.382 276.943 874.115 284.622 850.574C299.41 805.244 320.545 771.004 353.465 739.046C361.013 731.719 367.032 725.567 366.84 725.376C366.648 725.184 361.768 722.799 355.996 720.077C350.223 717.354 339.65 712.313 332.5 708.874C325.35 705.435 317.475 701.745 315 700.674C312.525 699.603 302.523 694.866 292.774 690.149L275.048 681.571L270.875 684.333C268.58 685.852 263.362 689.856 259.28 693.231C234.638 713.607 217.74 723.118 197.741 727.868C174.062 733.492 42.7013 750.869 23.8684 750.869C16.088 750.869 15.8367 751.116 14.7176 759.869C14.147 764.331 14.1758 764.384 18.1572 766.242C24.6972 769.294 37.2751 786.387 39.3606 795.057C40.4536 799.601 38.0694 799.987 22.9592 797.712C16.2905 796.708 14.9827 796.783 11.6509 798.364C5.56844 801.25 8.50489 802.228 23.4841 802.302C31.7824 802.343 37.0033 802.755 37.0053 803.369C37.0097 804.683 17.3544 805.205 11.0426 804.058L6.20459 803.179L5.53101 821.274C5.16053 831.226 5.002 845.444 5.17871 852.869L5.5 866.369L9.52315 866.665C12.8347 866.909 14.6919 866.218 20.0232 862.76C29.3195 856.73 39.307 852.205 48.478 849.867C64.273 845.842 102.519 842.647 137 842.472C154.548 842.383 158.175 842.629 162.186 844.177C171.324 847.703 176.85 857.042 178.929 872.477C180.639 885.166 181.874 926.068 181.046 942.609C180.328 956.954 180.096 958.231 177.097 964.323C171.746 975.193 167.143 977.223 144.384 978.753C115.759 980.677 63.5285 982.114 37.0115 981.707C22.7052 981.488 11 981.464 11 981.653C11 983.046 23.9511 992.291 28.881 994.418C37.7547 998.245 108.212 1008.5 169 1014.8C179.725 1015.92 205.825 1017.97 227 1019.36C248.175 1020.76 271.125 1022.28 278 1022.74C284.875 1023.2 292.201 1023.65 294.279 1023.73L298.058 1023.87L297.779 1010.62ZM208.539 952.619C208.32 951.931 207.918 936.744 207.646 918.869C207.007 876.987 204.29 845.368 199.928 829.059C197.277 819.146 193.744 812.518 188.108 806.881C178.703 797.477 167.588 795.65 132.767 797.784C116.728 798.767 54.5664 803.314 46 804.13C44.3385 804.289 43.5 803.866 43.5 802.869C43.5 801.192 49.6914 800.555 101.5 796.901C143.532 793.937 163.274 793.345 170.5 794.833C185.972 798.02 195.016 806.309 201.045 822.83C204.823 833.181 207.676 854.715 209.994 890.369C211.324 910.83 211.307 953.869 209.969 953.869C209.401 953.869 208.758 953.306 208.539 952.619ZM1019 1018.35C1078.68 1017.55 1166.2 1016.44 1213.5 1015.89C1334.4 1014.47 1449.47 1013.05 1540.5 1011.86C1712.88 1009.6 1849.24 1007.9 1899.5 1007.37C1928.65 1007.07 1958.46 1006.56 1965.75 1006.24L1979 1005.66V986.766V967.869H1971.03C1966.64 967.869 1941.78 968.304 1915.78 968.837C1889.77 969.369 1839.25 970.282 1803.5 970.865C1767.75 971.448 1713.75 972.36 1683.5 972.891C1609.96 974.183 1526.19 975.604 1449 976.871C1414.07 977.444 1347.47 978.576 1301 979.385C1254.53 980.195 1174.43 981.528 1123 982.348C1071.57 983.168 1003.62 984.304 972 984.872C874.428 986.626 799.901 987.857 790.884 987.863L782.267 987.873L782.66 995.123C782.875 999.11 783.313 1006.61 783.631 1011.78L784.21 1021.19L847.355 1020.5C882.085 1020.12 959.325 1019.15 1019 1018.35V1018.35ZM2492.57 994.352C2592.89 984.226 2651.89 976.985 2660.63 973.728C2665.37 971.961 2677.56 962.563 2682.5 956.861L2684.5 954.555L2682 955.263C2676.17 956.915 2638.26 960.761 2606 962.972C2585.22 964.396 2580.29 963.511 2572.91 957.035C2564.61 949.751 2565.64 949.884 2537.5 952.442C2523.75 953.691 2502.82 955.439 2491 956.325C2479.18 957.211 2468.04 958.167 2466.25 958.448L2463 958.959V977.914V996.869H2465.32C2466.6 996.869 2478.86 995.736 2492.57 994.352ZM297.821 991.019L298.142 987.669L264.321 988.112C237.419 988.465 228.863 988.907 222.5 990.272C218.1 991.216 213.825 992.291 213 992.661C210.328 993.858 228.744 994.505 263.5 994.436L297.5 994.369L297.821 991.019ZM2004.45 992.848C2009.37 992.272 2013.54 991.666 2013.7 991.501C2013.87 991.335 2013.6 984.435 2013.11 976.168C2010.71 935.55 2018.25 898.79 2036.15 863.726C2055.98 824.893 2089.96 791.995 2130.5 772.373C2157.79 759.163 2181.87 753.272 2213.06 752.172C2254.76 750.701 2291.58 760.213 2328.14 781.908C2381.18 813.38 2417.01 867.647 2426.63 931.047C2428.29 942.03 2429.01 966.425 2428.06 979.343L2427.61 985.318L2436.71 986.535C2441.71 987.205 2448.41 988.436 2451.61 989.27C2454.8 990.104 2457.62 990.582 2457.87 990.331C2458.92 989.277 2455.85 934.161 2453.97 920.457C2446.25 864.115 2430.6 823.519 2402.09 785.837C2388.99 768.518 2364.61 746.406 2345.5 734.498C2328.91 724.161 2301.32 712.28 2282.65 707.434C2259.94 701.54 2249.54 700.374 2220 700.409C2190.6 700.445 2183.36 701.205 2162.5 706.45C2119.69 717.214 2085.3 736.481 2055.38 766.469C2016.24 805.698 1995.64 853.134 1987.51 922.755C1985.89 936.65 1984.04 969.804 1984.01 985.261L1984 995.154L1989.75 994.524C1992.91 994.177 1999.53 993.423 2004.45 992.848ZM843.85 981.346C844.232 980.971 842.185 958.104 841.127 950.925L840.473 946.482L834.986 946.708C831.969 946.832 826.187 946.505 822.138 945.981C810.621 944.49 807.792 940.855 806.481 925.869C805.408 913.593 800.317 885.188 796.613 870.802C776.936 794.386 728.664 731.992 663.404 698.621C633.447 683.303 600.59 673.246 569.5 669.878C556.487 668.468 521.06 668.469 508.972 669.878C468.509 674.597 433.086 686.704 399 707.465C386.618 715.006 376.8 721.927 376.294 723.47C376.095 724.076 378.085 725.392 380.716 726.396C383.347 727.4 390.408 730.649 396.407 733.616L407.315 739.012L409.907 737.103C420.526 729.284 449.033 716.256 468.165 710.478C492.824 703.031 510.952 700.464 539 700.448C573.191 700.427 598.658 705.283 629.817 717.763C676.679 736.532 716.573 771.363 742.184 815.869C765.398 856.208 776.743 901.576 781.545 973.259L782.208 983.149L812.854 982.42C829.709 982.019 843.658 981.536 843.85 981.346ZM939.343 980.41C984.529 979.607 1052.55 978.467 1090.5 977.876C1128.45 977.285 1198.88 976.143 1247 975.337C1295.12 974.532 1360.82 973.437 1393 972.904C1425.18 972.371 1463.99 971.641 1479.25 971.283L1507 970.632V952.309C1507 942.232 1506.64 933.764 1506.2 933.492C1505.48 933.047 1396.42 935.011 1266 937.817C1166.46 939.959 1116.85 940.966 1017 942.872C960.625 943.948 899.036 945.134 880.135 945.508L845.769 946.186L846.417 954.277C846.773 958.728 847.569 966.756 848.187 972.119L849.31 981.869H853.248C855.414 981.869 894.157 981.212 939.343 980.41ZM49.7437 972.488C55.1097 970.079 70.3 963.563 83.5 958.009C125.713 940.246 124.396 941.339 125.541 923.117C126.449 908.654 125.443 885.557 123.752 882.06C123.064 880.635 120.954 878.569 119.065 877.469C114.946 875.07 112.634 875.041 68 876.829C50.675 877.523 30.9875 877.781 24.25 877.403C13.8009 876.816 12 876.932 12 878.193C12 879.005 12.8715 884.777 13.9366 891.019C16.5486 906.327 19 929.141 19 938.142C19 951.561 16.4571 960.212 9.4979 970.467C8.09717 972.531 7.29962 974.567 7.72556 974.991C8.55947 975.822 16.0348 976.369 30.7437 976.676C39.6963 976.862 40.2947 976.731 49.7437 972.488ZM101.5 975.871C146.71 974.224 157.56 973.211 164 970.034C168.55 967.79 170.018 966.375 172.5 961.845L175.5 956.369L175.836 930.369C176.174 904.176 174.792 875.194 172.807 866.869C171.193 860.099 167.058 853.068 163.34 850.77C157.914 847.416 148.874 846.744 124.119 847.853C63.1622 850.583 46.5392 853.208 30.2803 862.674C26.7905 864.706 21.8123 867.596 19.2176 869.095C16.6229 870.595 13.7125 871.832 12.75 871.845C11.7875 871.858 11 872.275 11 872.772C11 874.471 32.2214 875.125 58.8706 874.246C98.4135 872.943 116.855 873.097 120.803 874.762C126.278 877.071 127.74 881.376 128.499 897.421C128.861 905.092 128.699 917.141 128.139 924.196C126.665 942.739 126.866 942.535 97.8288 954.948C89.948 958.317 82.15 961.669 80.5 962.397C70.3666 966.869 50.8367 974.869 50.0511 974.869C49.5379 974.869 48.8399 975.319 48.5 975.869C47.7035 977.157 66.174 977.158 101.5 975.869V975.871ZM1596.5 969.368C1683.93 967.765 1752.85 966.541 1853.5 964.803C1888.7 964.195 1931.45 963.399 1948.5 963.033L1979.5 962.369L1979.75 954.869C1980.53 931.61 1985.66 894.165 1991.12 871.869C1998.84 840.339 2013.46 809.319 2032.36 784.369C2040.37 773.787 2057.15 756.616 2069.25 746.615L2079 738.556V718.712C2079 705.096 2078.66 698.869 2077.91 698.869C2076.14 698.869 2062.36 708.627 2049.48 719.006C2023.79 739.702 2002.68 764.548 1987.16 792.379C1970.02 823.102 1958.09 860.126 1952.57 899.663C1951 910.928 1948.9 916.843 1945.32 920.081C1940.37 924.56 1939.12 924.669 1879.46 925.812C1848.13 926.412 1788.07 927.563 1746 928.369C1622.41 930.735 1560.06 932.02 1535 932.716L1511.5 933.369L1511.55 937.619C1511.89 970.044 1511.95 970.869 1513.75 970.861C1514.71 970.861 1551.95 970.185 1596.5 969.368ZM2638 957.392C2665.32 954.894 2682.78 952.657 2686.67 951.154C2689.75 949.966 2698.69 939.214 2701.39 933.461C2704.55 926.746 2706.77 915.638 2707.36 903.619C2707.92 892.254 2708.9 892.902 2695.45 895.793C2684.32 898.186 2674.02 899.41 2648.5 901.371C2615.81 903.884 2606.29 905.437 2596.2 909.9C2590.66 912.349 2580.6 919.528 2576.05 924.271C2574.16 926.25 2572.25 927.869 2571.8 927.869C2567.99 927.869 2577.66 917.62 2587.29 911.46C2599.35 903.748 2608.72 901.657 2644 898.81C2673.69 896.414 2683.5 895.284 2696.32 892.784C2701.73 891.731 2706.36 890.869 2706.62 890.869C2707.37 890.869 2706.63 868.758 2705.86 868.284C2705.48 868.049 2702.24 868.539 2698.65 869.371C2695.06 870.204 2688.38 871.307 2683.81 871.823C2679.24 872.339 2669.88 873.443 2663 874.276C2656.12 875.109 2636.55 876.718 2619.5 877.851C2602.45 878.983 2572.3 881.021 2552.5 882.379C2502.66 885.797 2496.4 885.896 2492.04 883.333C2487.19 880.487 2485.48 877.051 2480.5 860.158C2470.97 827.797 2460.93 804.78 2445.71 780.369C2438.05 768.096 2435.12 764.694 2432.84 765.421C2429.53 766.471 2405.5 779.833 2405.5 780.623C2405.5 781.033 2408.72 785.869 2412.66 791.369C2439.79 829.295 2453.38 870.73 2461.63 940.644L2462.13 944.92L2466.82 944.395C2469.39 944.106 2478.48 943.397 2487 942.818C2495.52 942.24 2518.7 940.453 2538.5 938.848C2558.3 937.242 2577.88 935.68 2582 935.377C2621.93 932.441 2685.02 926.522 2689.6 925.282C2692.44 924.514 2695.27 927.402 2694.44 930.224C2693.23 934.338 2688.89 943.329 2687.2 945.229C2683.98 948.858 2679 949.865 2649.3 952.906C2613.98 956.522 2589.05 957.699 2583.88 955.994C2580.11 954.751 2575.08 950.474 2571 945.049L2568.5 941.729L2536 944.34C2502.22 947.054 2465.41 949.847 2463.25 949.861C2461.92 949.871 2461.49 954.444 2462.75 955.2C2463.16 955.448 2468 955.261 2473.5 954.787C2509.73 951.661 2558.25 947.869 2562.02 947.869C2565.94 947.869 2567.3 948.518 2572.76 952.989C2576.2 955.804 2580.7 958.743 2582.76 959.519C2587.51 961.312 2600.67 960.805 2638 957.392ZM2649 947.955C2664.68 946.347 2678.72 944.562 2680.22 943.988C2683.41 942.76 2690.11 930.869 2687.61 930.869C2686.83 930.869 2680.41 931.537 2673.35 932.355C2654.85 934.495 2609.07 938.636 2591.13 939.793C2582.67 940.338 2575.56 940.971 2575.33 941.201C2574.63 941.904 2580.23 948.034 2583.46 950.091C2586.27 951.883 2587.81 951.988 2603.5 951.456C2612.85 951.138 2633.32 949.563 2649 947.955ZM840.255 939.869C834.745 861.179 832.207 803.62 831.37 738.369C830.792 693.397 831.889 634.863 833.669 615.564L834.297 608.759L810.399 609.445C780.405 610.305 773.559 609.594 732.159 601.325C684.626 591.831 681.835 591.55 641.5 592.182C588.762 593.008 479.795 601.43 386.777 611.87C356.244 615.296 356 615.31 356 613.594C356 611.658 421.116 604.62 501 597.921C575.801 591.648 621.728 588.902 652 588.893C683.487 588.883 690.603 589.747 734 598.85C768.36 606.057 771.387 606.379 803.765 606.27C819.861 606.216 833.286 605.916 833.6 605.602C833.913 605.289 834.584 598.358 835.091 590.201C835.598 582.043 836.439 570.87 836.96 565.372C837.481 559.875 837.591 555.108 837.204 554.781C836.817 554.453 831.55 554.552 825.5 555.001C819.45 555.45 796.725 556.969 775 558.375C681.894 564.404 539.34 576.565 470.5 584.351C463.35 585.16 444.9 587.191 429.5 588.864C398.911 592.188 360.392 596.642 355.25 597.449C352.025 597.955 351.08 599.182 353 600.369C353.55 600.709 354 602.918 354 605.278C354 608.426 353.237 610.607 351.136 613.469C346.021 620.435 326.972 637.733 295.75 663.765C287.638 670.529 281 676.631 281 677.324C281 678.017 284.938 680.412 289.75 682.646C308.991 691.579 349.159 710.826 360.011 716.312L371.522 722.131L384.011 713.64C390.88 708.97 398.525 704.033 401 702.67C416.993 693.86 421.655 691.512 431.5 687.306C470.414 670.681 508.504 664.005 553.148 665.983C581.592 667.243 608.874 672.871 635.525 682.976C671.673 696.681 701.281 715.817 728.013 742.747C774.616 789.696 801.693 850.335 809.089 924.314C809.695 930.376 810.801 936.518 811.548 937.962C813.801 942.318 818.914 943.703 832 943.5L840.5 943.369L840.255 939.869ZM781.923 660.946C779.293 658.315 779 657.372 779 651.534C779 645.517 779.223 644.859 782.077 642.458C784.979 640.016 785.778 639.869 796.154 639.869C806.978 639.869 807.2 639.915 810.077 642.792C812.677 645.391 813 646.398 813 651.891C813 657.51 812.72 658.328 809.894 660.967C806.858 663.804 806.544 663.869 795.817 663.869C785.025 663.869 784.799 663.821 781.923 660.946ZM808 658.869C809.51 657.359 810 655.535 810 651.425C810 643.904 808.359 642.864 796.527 642.883C783.991 642.904 782.58 643.758 782.205 651.555C781.799 659.976 783.143 660.869 796.223 660.869C804.667 660.869 806.273 660.596 808 658.869ZM943.5 941.4C980.35 940.595 1034.57 939.465 1064 938.889C1093.43 938.313 1149 937.18 1187.5 936.37C1259.49 934.858 1318.85 933.685 1416.5 931.848C1447.3 931.268 1480.15 930.543 1489.5 930.235L1506.5 929.676L1506.18 902.032C1506 886.828 1505.71 874.245 1505.54 874.071C1505.36 873.896 1487.96 874.455 1466.86 875.313C1445.76 876.171 1417.03 877.33 1403 877.889C1329.18 880.833 1223.78 885.272 1189.5 886.88C1083.29 891.864 1039.63 894.04 1029 894.882C982.845 898.538 949.291 904.571 898.5 918.344C874.106 924.959 871 925.591 871 923.94C871 922.915 874.138 921.938 900.423 914.783C946.812 902.155 982.507 895.734 1024.94 892.382C1040.54 891.151 1076.65 889.265 1140.5 886.348C1147.1 886.047 1171.18 884.927 1194 883.859C1216.82 882.791 1252.15 881.234 1272.5 880.4C1292.85 879.565 1336.28 877.758 1369 876.385C1421.94 874.163 1503.25 870.872 1505.25 870.87C1505.66 870.869 1506 867.044 1506 862.369V853.869H1502.45C1489.87 853.869 1292.23 862.436 1202.5 866.87C1107.02 871.589 1039.79 876.435 1007 880.966C968.736 886.252 931.483 896.606 883.651 915.25C871.609 919.944 869 920.601 869 918.939C869 916.417 936.494 892.659 960.073 886.88C974.883 883.25 1001.67 878.491 1019 876.409C1042.44 873.593 1130.14 867.341 1180.5 864.896C1203.21 863.794 1295.92 859.558 1334 857.884C1346.93 857.315 1367.62 856.399 1380 855.847C1392.38 855.295 1418.93 854.183 1439 853.376C1459.07 852.569 1482.42 851.612 1490.87 851.249L1506.25 850.589L1505.55 821.979C1504.6 782.845 1507.03 648.403 1509.64 595.998L1510.3 582.628L1496.15 583.361C1483.91 583.994 1482 583.891 1482 582.594C1482 581.366 1484.54 580.962 1496 580.369C1506.78 579.811 1510 579.331 1510 578.285C1510 577.537 1510.7 564.256 1511.56 548.77C1512.42 533.285 1512.9 520.062 1512.65 519.386C1512.31 518.522 1510 518.266 1504.84 518.522C1500.8 518.723 1481.97 519.559 1463 520.381C1444.03 521.203 1424.45 522.09 1419.5 522.354C1410.58 522.829 1400.69 523.303 1377.5 524.369C1370.9 524.672 1351.1 525.582 1333.5 526.39C1315.9 527.199 1292.05 528.312 1280.5 528.865C1200.55 532.69 1176.66 533.881 1170.5 534.347C1166.65 534.639 1146.85 535.773 1126.5 536.868C1106.15 537.963 1081.62 539.313 1072 539.869C1062.38 540.424 1042.8 541.546 1028.5 542.361C1014.2 543.177 995.3 544.307 986.5 544.872C977.7 545.437 951.825 547.023 929 548.398C883.775 551.121 843.704 553.831 843.343 554.192C842.935 554.601 840.089 589.146 839.791 597.321L839.5 605.274L848.5 605.038C853.45 604.908 867.85 604.362 880.5 603.824C893.15 603.287 922.175 602.174 945 601.352C1018.87 598.69 1066.7 596.915 1105.5 595.393C1126.4 594.574 1156.55 593.43 1172.5 592.851C1188.45 592.273 1222.88 590.916 1249 589.836C1275.12 588.756 1301.84 587.872 1308.37 587.871C1318.81 587.869 1320.09 588.05 1319 589.369C1318.05 590.512 1315.46 590.869 1308.13 590.871C1302.83 590.872 1288.15 591.296 1275.5 591.812C1262.85 592.328 1244.62 593.023 1235 593.357C1215.09 594.047 1174.79 595.575 1155.5 596.373C1148.35 596.668 1130.35 597.359 1115.5 597.907C1056.44 600.087 982.069 602.894 956 603.927C940.875 604.526 908.615 605.781 884.31 606.715C860.006 607.65 839.86 608.675 839.542 608.993C838.332 610.203 836.948 645.085 836.352 689.369C835.564 747.896 837.776 826.989 841.987 890.869C842.513 898.844 843.495 913.806 844.17 924.119L845.397 942.869H860.948C869.502 942.869 906.65 942.208 943.5 941.402V941.4ZM1371 620.817C1345.69 617.65 1331.72 610.107 1329.17 598.23C1326.19 584.329 1335.25 575.665 1360.33 568.433C1371.88 565.101 1378.51 564.061 1395.76 562.873C1433.1 560.3 1472.35 570.471 1475.64 583.571C1476.78 588.099 1475.45 596.424 1473.06 599.78C1466.63 608.816 1452.79 615.162 1431.1 619.016C1418.68 621.224 1382.84 622.298 1371 620.817ZM1419 617.408C1426.43 616.617 1435.51 615.269 1439.18 614.414C1447.28 612.526 1461.73 607.11 1462.66 605.614C1463.08 604.935 1462.74 604.756 1461.75 605.134C1460.88 605.466 1455.59 606.721 1449.98 607.921L1439.79 610.103L1432.65 607.28C1424.74 604.156 1425.38 604.179 1391 605.782C1373.67 606.591 1373.44 606.631 1367.35 609.979L1361.2 613.359L1352.64 611.598C1347.93 610.629 1343.31 609.542 1342.38 609.183C1341.31 608.776 1340.92 608.924 1341.32 609.575C1342.47 611.443 1358.25 615.935 1368.5 617.316C1381.93 619.124 1402.55 619.161 1419 617.408ZM1363.43 607.347C1364.49 606.545 1365.16 605.716 1364.93 605.505C1364.69 605.294 1358.88 604.902 1352 604.635C1340.38 604.184 1339.78 604.248 1343.5 605.549C1347.46 606.934 1355.64 608.556 1359.5 608.72C1360.6 608.767 1362.37 608.149 1363.43 607.347ZM1452.35 604.433C1463.09 601.708 1468.3 599.351 1461.5 600.291C1459.3 600.595 1451.99 601.143 1445.25 601.509C1438.51 601.874 1433 602.473 1433 602.84C1433 603.744 1439.11 606.725 1441.12 606.805C1442.01 606.84 1447.06 605.773 1452.35 604.433ZM1374.61 601.95C1377.3 601.445 1392.55 600.758 1408.5 600.424C1441.76 599.726 1466.32 598.084 1468.62 596.404C1470.71 594.877 1471.68 586.392 1470 584.365C1468.63 582.716 1464.34 582.759 1414.5 584.92C1377.7 586.517 1371.01 586.433 1365.08 584.3C1360.11 582.514 1359.57 582.508 1351.7 584.145C1333.63 587.907 1332.44 588.629 1333.42 595.194C1334.55 602.746 1334.87 602.869 1353.43 602.869C1362.4 602.869 1371.93 602.455 1374.61 601.95ZM1343.19 580.811C1345.56 580.168 1350.94 579.087 1355.15 578.409C1362.45 577.234 1363.04 577.286 1367.75 579.525L1372.69 581.872L1398.59 580.83C1423.72 579.819 1424.67 579.706 1430 577.078C1434.49 574.866 1436.69 574.405 1442 574.569C1448.36 574.765 1461.61 576.966 1465.41 578.458C1468.81 579.79 1466.16 576.991 1462.03 574.886C1448.18 567.816 1418.69 563.957 1393.26 565.887C1371.91 567.508 1353.5 572.181 1341.26 579.093C1336.32 581.878 1334.23 583.763 1337.44 582.531C1338.23 582.228 1340.82 581.453 1343.19 580.811ZM1450.5 581.777C1458.66 581.693 1460.6 581.45 1458 580.835C1450.44 579.044 1439.85 578.597 1435.9 579.902C1430.89 581.556 1430.79 583.331 1435.75 582.51C1437.81 582.17 1444.45 581.84 1450.5 581.777ZM1572.5 928.858C1599.45 928.314 1642.88 927.433 1669 926.899C1695.12 926.365 1755.65 925.225 1803.5 924.366C1851.35 923.506 1901.3 922.48 1914.5 922.086C1937.69 921.393 1938.61 921.287 1941.88 918.961C1946.16 915.906 1948.6 910.261 1949.48 901.369C1950.25 893.585 1953.8 874.913 1957.45 859.479C1964.1 831.369 1979.78 795.808 1996.23 771.536C2001.91 763.157 2014.71 747.525 2022.66 739.258C2036.68 724.676 2058.33 706.961 2072.33 698.614L2079.17 694.54L2078.57 634.454C2078.24 601.407 2077.7 565.256 2077.37 554.119L2076.78 533.869H2074.11C2069.76 533.869 2047.42 536.754 2034.5 538.984C2023.39 540.901 1998.18 546.969 1980.82 551.903C1963.66 556.781 1933.17 563.826 1923 565.26C1887.05 570.332 1885 570.452 1767.5 574.368C1742.75 575.193 1719.46 575.995 1715.75 576.151C1710.7 576.363 1709 576.104 1709 575.12C1709 574.397 1709.56 573.625 1710.25 573.405C1710.94 573.184 1727.03 572.512 1746 571.911C1843.23 568.831 1871.24 567.868 1879 567.338C1905.03 565.558 1937.74 560.288 1959.5 554.366C2011.26 540.281 2035.29 535.197 2066.25 531.781L2077 530.594V515.232V499.869H2064.48C2057.6 499.869 2036.11 500.32 2016.73 500.871C1997.36 501.422 1957.88 502.548 1929 503.372C1845.62 505.751 1788.51 507.653 1688 511.4C1651.43 512.764 1609.8 514.312 1595.5 514.84C1568.45 515.839 1554.95 516.396 1531.75 517.472C1519.97 518.018 1518 518.344 1517.99 519.739C1517.98 522.074 1516.17 558.573 1515.49 570.071L1514.92 579.773L1530.59 579.16C1543.83 578.643 1546.2 578.768 1545.81 579.958C1545.45 581.034 1541.8 581.575 1530.42 582.239C1522.21 582.717 1515.4 583.195 1515.27 583.3C1515.15 583.405 1514.38 600.564 1513.56 621.43C1511.47 674.768 1509.74 772.829 1510.15 814.869L1510.5 850.369L1519.5 850.102C1524.45 849.955 1540.88 849.394 1556 848.856C1571.12 848.318 1615.68 846.758 1655 845.39C1694.32 844.022 1738.88 842.448 1754 841.894C1800.23 840.199 1836.4 838.969 1860.25 838.281C1880.84 837.686 1883 837.778 1883 839.246C1883 840.506 1881.98 840.869 1878.44 840.869C1873.51 840.869 1719.7 845.992 1654.5 848.329C1632.5 849.117 1592.22 850.5 1565 851.403C1537.78 852.305 1514.49 853.238 1513.25 853.475C1511.12 853.883 1511 854.382 1511 862.516V871.125L1523.75 870.475C1530.76 870.117 1548.2 869.392 1562.5 868.864C1654.39 865.468 1687.73 864.595 1729.5 864.488C1782.15 864.354 1779.46 864.097 1811.5 872.343C1846.72 881.407 1913 903.388 1913 906.001C1913 907.353 1910.81 907.042 1904.41 904.785C1844.73 883.737 1803.72 871.876 1778.12 868.261C1761.19 865.869 1716.43 866.606 1559.5 871.859C1541.9 872.448 1523.79 873.182 1519.25 873.489L1511 874.048V901.958V929.869L1517.25 929.857C1520.69 929.847 1545.55 929.401 1572.5 928.858ZM1592.5 611.796C1583.48 610.561 1571.98 607.408 1566.68 604.714C1556.45 599.524 1553.01 594.468 1553.01 584.622C1553.01 578.309 1553.23 577.624 1556.51 573.991C1562.79 567.043 1578.79 560.25 1598.16 556.31C1608.69 554.169 1640.69 553.278 1652.22 554.805C1678.6 558.3 1697.02 566.149 1699.29 574.869C1701.24 582.358 1698.48 591.03 1692.52 596.084C1685.52 602.027 1670.49 607.61 1654 610.397C1642.64 612.317 1602.91 613.22 1592.5 611.796ZM1653.05 607.43C1658.31 606.603 1665.64 604.99 1669.34 603.845C1677.02 601.473 1685.47 597.997 1684.89 597.45C1684.68 597.247 1681.35 597.908 1677.5 598.918C1667.91 601.433 1663.97 601.304 1656.72 598.239L1650.5 595.608L1625.26 596.581L1600.02 597.553L1593.78 600.825C1587.29 604.227 1584.56 604.406 1571.72 602.271C1569.29 601.866 1568.89 601.986 1570.09 602.76C1572.52 604.33 1585.68 607.724 1593.5 608.799C1603.22 610.135 1641.45 609.256 1653.05 607.43ZM1589.5 598.869C1591.29 596.887 1591.25 596.869 1584.3 596.869C1580.45 596.869 1574.53 596.58 1571.15 596.226C1562.19 595.29 1563.32 597.361 1572.75 599.176C1583.85 601.311 1587.35 601.247 1589.5 598.869ZM1683.69 592.737C1691.6 590.295 1693.54 588.443 1694.43 582.489C1695.5 575.355 1694.79 574.274 1688.22 573.057C1671.54 569.966 1663.75 569.913 1658.01 572.852C1654.15 574.832 1651.24 575.268 1637.01 576.004C1627.93 576.473 1610.8 576.777 1598.95 576.679C1587.1 576.581 1576.98 576.763 1576.45 577.083C1575.93 577.404 1571.68 577.98 1567 578.364C1562.32 578.748 1558.16 579.581 1557.75 580.215C1556.88 581.553 1557.83 589.552 1559.16 592.119C1559.97 593.683 1561.9 593.868 1577.29 593.86C1586.75 593.855 1598.32 593.424 1603 592.9C1607.68 592.376 1621.4 591.817 1633.5 591.658C1654.78 591.378 1655.63 591.443 1659.5 593.632C1662.97 595.594 1664.42 595.818 1670.38 595.309C1674.17 594.986 1680.16 593.828 1683.69 592.737ZM1579 575.17C1589.06 574.498 1591.81 573.509 1587.83 571.994C1585.82 571.229 1583.11 571.469 1576.84 572.967C1572.26 574.06 1568.06 575.451 1567.51 576.059C1566.79 576.847 1567.07 576.959 1568.5 576.45C1569.6 576.058 1574.32 575.482 1579 575.17ZM1567.25 571.871C1570.38 570.772 1576.12 569.328 1580 568.661C1586.74 567.507 1587.28 567.561 1591.41 569.82L1595.75 572.19L1622.37 571.585C1648.54 570.991 1649.1 570.934 1655.03 568.275C1660.73 565.716 1661.62 565.603 1671.28 566.205C1676.9 566.555 1683.05 567.29 1684.93 567.838C1690.03 569.317 1689.96 568.18 1684.81 565.904C1677.92 562.856 1663.07 559.148 1652.35 557.798C1638.9 556.106 1608.52 557.184 1596.17 559.791C1583.07 562.554 1572.23 566.346 1565.91 570.373C1559.58 574.404 1559.69 574.529 1567.25 571.871ZM2540.5 880.349C2560.3 878.966 2593.15 876.717 2613.5 875.351C2633.85 873.985 2654.64 872.417 2659.71 871.868C2664.78 871.318 2669.5 870.845 2670.21 870.817C2670.92 870.788 2668.67 869.714 2665.22 868.431C2658.01 865.752 2645.98 856.93 2639.39 849.478C2632.37 841.556 2622.21 825.786 2620.03 819.443C2616.39 808.872 2615.67 798.426 2616.36 765.869C2617 735.238 2618.41 720.335 2621.58 710.681C2623.44 705.025 2629.24 699.42 2634.79 697.926L2638.68 696.877L2637.97 692.623C2637.57 690.283 2636.07 681.704 2634.62 673.557C2633.18 665.411 2632 657.494 2632 655.963V653.18L2611.75 653.576C2600.61 653.794 2590.55 654.165 2589.4 654.402C2587.74 654.742 2586.95 656.234 2585.65 661.514C2582.36 674.821 2576.31 681.852 2559 692.488C2538.44 705.118 2467.27 746.311 2444.25 758.91C2440.81 760.791 2438 762.579 2438 762.883C2438 763.187 2441.36 768.556 2445.46 774.814C2454.14 788.035 2466.09 810.986 2471.86 825.499C2475.71 835.17 2486 866.82 2486 868.972C2486 871.78 2490.39 879.645 2492.78 881.13C2496.34 883.334 2498.19 883.304 2540.5 880.349ZM2512 875.04C2512 872.985 2518.67 864.476 2524.87 858.631C2537.4 846.811 2559.84 833.45 2577.13 827.515C2586.92 824.154 2600.56 820.885 2604.83 820.876C2610.98 820.863 2607.62 823.213 2599.54 824.577C2570.01 829.565 2532.05 851.047 2517.33 871.105C2514.09 875.507 2512 877.055 2512 875.04ZM2696.23 867.242C2700.78 866.347 2704.84 865.306 2705.26 864.929C2705.68 864.551 2704.91 863.193 2703.54 861.911C2701.2 859.706 2700.76 859.642 2695.36 860.724C2688.4 862.123 2685.53 862.151 2681 860.865C2669.84 857.701 2649.16 833.945 2641.69 815.702C2639.53 810.441 2639.5 809.622 2639.5 755.707C2639.5 725.644 2639.24 700.779 2638.91 700.453C2637.98 699.508 2631.72 701.946 2629.16 704.257C2625.8 707.28 2624.2 710.805 2622.49 718.939C2619.1 735.01 2617.77 794.069 2620.45 809.083C2622.93 823.033 2631.33 837.121 2645.62 851.334C2661.26 866.893 2675.4 871.338 2696.23 867.242ZM2694.5 857.848C2696.39 857.808 2696.4 857.73 2694.73 856.459C2692.07 854.447 2676.16 851.312 2674.91 852.556C2672.65 854.817 2683.06 859.087 2689 858.334C2690.93 858.09 2693.4 857.871 2694.5 857.848ZM2670.03 814.207C2672.49 775.019 2674 736.911 2674 714.078V695.642L2669.25 696.399C2666.64 696.815 2660.13 697.654 2654.8 698.262L2645.09 699.369L2644.8 754.369L2644.5 809.369L2648.09 816.869C2651.53 824.064 2666.72 845.486 2667.69 844.515C2667.95 844.257 2669 830.618 2670.03 814.207ZM33 792.601C33 791.314 29.8455 786.225 25.1084 779.869L22.5 776.369L22 780.369C21.725 782.569 21.6581 786.039 21.8513 788.08C22.1777 791.527 22.4979 791.857 26.3513 792.723C32.232 794.043 33 794.029 33 792.601ZM2429.91 760.351C2431.11 759.182 2430.29 757.775 2424.26 750.676C2403.02 725.658 2382.72 709.238 2352.39 692.538C2330.57 680.526 2313.91 673.885 2290.5 667.871C2226.93 651.542 2158.97 657.991 2101.58 685.797C2093.83 689.548 2086.7 693.237 2085.73 693.995C2084.12 695.245 2083.98 697.209 2084.23 715.019L2084.5 734.664L2092.9 729.693C2137.4 703.358 2181.79 692.505 2234.65 695.04C2273.77 696.916 2309.22 707.463 2344.5 727.721C2358.21 735.59 2375.81 749.538 2389 762.983L2401.5 775.723L2415 768.721C2422.43 764.869 2429.13 761.103 2429.91 760.351ZM2468 739.387C2501.01 720.594 2540.62 697.548 2555 688.776C2568.48 680.553 2575.02 674.412 2578.54 666.688L2581.42 660.369L2582.22 624.369C2582.98 590.346 2582.57 506.77 2581.47 472.869C2578.68 386.513 2574.15 311.788 2567.47 241.869C2563.73 202.825 2561.77 183.405 2559 157.869C2557.35 142.744 2556.02 127.444 2556.02 123.869C2556.04 115.093 2558.33 104.874 2561.64 98.7889C2564.71 93.1527 2576.05 81.9054 2583.25 77.3646C2585.86 75.7168 2588 73.6462 2588 72.7633C2588 70.9477 2577.36 58.9732 2572.96 55.8415L2570.07 53.7854L2557.17 59.3352C2531.49 70.3747 2521.47 71.4496 2481 67.5056C2422.85 61.8376 2336.72 55.8595 2278 53.4154C2266.09 52.9195 2247.44 52.1146 2208 50.3934C2108.1 46.0337 1860.51 43.5926 1747.5 45.8531C1550.07 49.8021 1441.78 55.9148 1374 66.9366C1269 84.0117 1182.27 119.71 1066 193.712C1007.6 230.882 945.479 274.3 829.029 359.333C815.57 369.161 804.095 377.589 803.529 378.062C799.531 381.401 742.13 422.99 736.856 426.369C725.641 433.552 721.999 436.259 722.682 436.901C724.29 438.409 749.525 456.109 750.762 456.595C751.456 456.868 754.831 454.64 758.262 451.643C776.877 435.384 847.083 380.801 882.985 354.674L901.47 341.222L903.607 333.53C907.686 318.848 918.817 304.139 935 292.047C956.225 276.187 1024.86 228.994 1052.52 211.244C1056.91 208.425 1065.68 202.785 1072 198.71C1081.48 192.605 1106 177.843 1139 158.378C1154.34 149.33 1198.64 127.626 1219 119.187C1323.14 76.0153 1406.5 63.8409 1649.24 56.3567C1775.79 52.4546 2019.42 51.7829 2035.33 55.2922C2048.5 58.1959 2057.23 63.4979 2063.68 72.5144C2068.47 79.2095 2069.95 83.0258 2071.56 92.76C2072.32 97.3753 2073.07 101.269 2073.22 101.412C2073.38 101.556 2095.55 101.962 2122.5 102.315C2254.39 104.044 2390.76 110.233 2410.43 115.383C2423.5 118.806 2432.7 126.666 2437.41 138.42C2444.47 156.052 2456.05 272.082 2454.75 312.071C2454.05 333.486 2451.78 338.987 2438.32 351.989C2423.67 366.132 2382.68 392.602 2366.11 398.619C2349.94 404.488 2347.09 404.789 2293 406.353C2265.23 407.156 2218.65 408.531 2189.5 409.407C2160.35 410.284 2123.9 411.309 2108.5 411.685L2080.5 412.369L2080.19 417.129C2079.97 420.623 2080.28 422.041 2081.37 422.459C2082.19 422.772 2122.83 422.309 2171.68 421.429C2345.57 418.297 2442.05 416.784 2481 416.578C2525.27 416.343 2525.09 416.317 2528.45 423.403C2529.84 426.325 2530.1 429.213 2529.83 438.345C2529.46 450.98 2528.82 452.389 2521.75 455.994C2517.1 458.368 2512.36 458.562 2426 459.912C2347.68 461.137 2155.31 464.525 2112.25 465.437L2081 466.099L2081.01 474.234C2081.01 478.708 2081.31 485.477 2081.67 489.276L2082.32 496.183L2111.9 495.553C2131.72 495.131 2141.6 494.565 2141.85 493.84C2142.72 491.229 2148.9 484.188 2152.53 481.669C2160.58 476.09 2164.21 475.712 2215 475.161C2261.38 474.659 2261.52 474.663 2267.5 476.907C2273.23 479.055 2281.17 485.564 2283.65 490.143C2284.56 491.828 2287.29 491.866 2337.56 490.901C2510.13 487.586 2575.18 486.936 2575.72 488.521C2576.31 490.276 2563.89 490.742 2500.5 491.346C2469.15 491.645 2432.48 492.12 2419 492.403C2405.53 492.685 2370.21 493.384 2340.52 493.955C2310.84 494.526 2286.37 495.165 2286.16 495.376C2285.95 495.587 2286.28 498.634 2286.89 502.146C2287.5 505.659 2288 512.235 2288 516.761V524.989L2299.75 524.386C2313.58 523.676 2523.84 518.982 2551.46 518.767C2563.27 518.675 2570.54 518.994 2570.75 519.613C2571.18 520.913 2555.55 521.699 2515.5 522.391C2497.9 522.695 2466.63 523.364 2446 523.878C2425.38 524.392 2383.3 525.292 2352.5 525.877C2321.7 526.462 2294.63 527.172 2292.34 527.454L2288.17 527.966L2287.83 544.667C2287.52 559.839 2287.27 561.768 2285.17 565.73C2280.02 575.416 2270.46 580.936 2256.5 582.281C2253.2 582.599 2231.15 582.898 2207.5 582.946C2165.35 583.031 2164.39 582.989 2158.54 580.799C2150.68 577.857 2143.7 570.828 2141.42 563.58C2140.4 560.336 2139.59 553.16 2139.26 544.571L2138.74 530.773L2118.62 531.463C2107.56 531.843 2097.83 532.28 2097 532.435C2096.18 532.589 2092.4 532.75 2088.61 532.792L2081.73 532.869L2082.36 567.619C2082.71 586.731 2083.27 622.169 2083.62 646.369C2083.97 670.569 2084.32 690.461 2084.41 690.574C2084.5 690.686 2090.86 687.687 2098.54 683.909C2131.92 667.485 2162.5 659.565 2203.47 656.73C2239 654.272 2279.05 659.632 2313 671.389C2334.11 678.697 2367.89 696.631 2385.23 709.735C2402.22 722.572 2418.61 738.628 2431.53 755.087C2434.17 758.439 2434.65 758.676 2436.48 757.494C2437.59 756.773 2451.78 748.625 2468 739.387L2468 739.387ZM40.5 746.818C60.7517 744.994 129.478 736.005 173.094 729.475C206.125 724.53 217.551 720.27 240 704.528C249.623 697.78 251.484 696.203 248.5 697.328C243.595 699.178 221.139 703.056 193.5 706.826C177 709.076 155.73 712.032 146.233 713.393C136.736 714.755 125.428 715.869 121.102 715.869C115.185 715.869 111.62 716.478 106.702 718.329C87.8678 725.418 48.0222 735.639 35.7385 736.533C27.2587 737.149 26.9141 737.272 25.0208 740.335C23.9449 742.076 22.15 744.328 21.0323 745.339C17.9381 748.14 18.5511 748.816 23.75 748.337C26.3625 748.096 33.9 747.413 40.5 746.818ZM49 731.688C71.243 727.056 113.505 713.869 106.107 713.869C104.127 713.869 90.9997 707.017 75.7369 698.016C68.1672 693.552 60.9629 689.646 59.7273 689.336C57.8246 688.859 56.9555 689.66 54.0475 694.571C45.9878 708.181 36.4676 723.723 33.3531 728.355C31.5089 731.098 30 733.713 30 734.167C30 735.16 36.2225 734.349 49 731.688ZM140 708.904C147.425 707.829 168.8 704.877 187.5 702.344C239.637 695.282 246.951 693.394 262.135 683.084C268.836 678.534 299.015 654.249 310 644.568C312.475 642.387 321.073 634.817 329.107 627.746C350.995 608.48 353.456 603.567 342.749 600.512C319.393 593.847 305.283 592.953 289 597.105C283.225 598.578 272.2 600.948 264.5 602.371C256.8 603.794 242.175 606.526 232 608.441C221.825 610.356 207.2 613.045 199.5 614.417C191.8 615.789 178.525 618.241 170 619.866C161.475 621.491 141.225 625.323 125 628.382C90.9618 634.8 92.6177 633.955 86.9139 647.819C85.2057 651.971 80.9915 660.094 77.549 665.869C70.7415 677.289 67 684.303 67 685.645C67 686.115 68.8303 687.529 71.0673 688.786C73.3044 690.044 77.4669 692.634 80.3173 694.542C83.1678 696.451 91.35 700.9 98.5 704.429C110.977 710.588 111.802 710.846 119 710.852C123.125 710.855 132.575 709.979 140 708.904ZM109 696.237C98.0952 692.487 80.1604 684.852 76.25 682.294C73.1369 680.258 73.4173 678.232 77.6662 672.063C84.3561 662.349 76.7031 664.004 199 645.824C206.425 644.721 213 643.642 213.611 643.428C214.222 643.213 215.043 640.207 215.434 636.746C216.314 628.973 218.121 624.485 221.166 622.514C223.689 620.881 276.108 612.859 284.215 612.865C289.759 612.869 291.569 615.022 290.559 620.407C289.817 624.359 288.323 624.968 273.5 627.356C253.095 630.643 241.441 633.047 239.344 634.4C237.144 635.82 233.744 644.774 232.522 652.369C231.431 659.144 229.969 663.869 228.961 663.869C227.484 663.869 227.805 659.781 230.033 650.227C232.994 637.526 235.195 633.103 239.431 631.333C241.363 630.526 252.97 628.178 265.222 626.117L287.5 622.369V618.869V615.369L282.5 615.69C278.515 615.946 250.339 619.878 226.839 623.457C219.821 624.526 218.461 628.533 217.385 651.303L216.683 666.163L222.591 665.549C225.841 665.212 233.9 664.635 240.5 664.269L252.5 663.602L273.512 642.985C285.068 631.646 296.318 621.183 298.512 619.734C301.886 617.505 305.335 616.69 320.904 614.438C338.184 611.939 341.92 611.934 340.208 614.41C338.547 616.815 302.787 648.142 287.5 660.586C268.789 675.817 264.503 679.051 259.962 681.37C254.863 683.974 252.947 684.279 191 692.355C167.625 695.402 145.489 698.34 141.808 698.882C128.543 700.838 120.49 700.189 109 696.237ZM146 695.424C156.175 694.099 177.1 691.396 192.5 689.417C237.1 683.687 249.145 681.908 254.846 680.212C260.978 678.388 270.038 671.801 292.367 652.932C300.543 646.022 308.193 639.564 309.367 638.58C321.381 628.507 334.613 616.297 333.826 616.009C333.285 615.811 326.24 616.648 318.171 617.869C306.256 619.672 302.762 620.585 299.571 622.729C297.411 624.181 284.555 636.169 271.003 649.369C255.531 664.439 244.497 674.381 241.349 676.09C235.632 679.192 230.093 680.249 192 685.499C173.463 688.054 161.744 689.16 153 689.18C140.758 689.209 140.191 689.11 125.5 684.376L110.5 679.544L93.75 679.105C84.2163 678.856 77 679.053 77 679.563C77 680.534 109.953 694.074 116.5 695.793C120.017 696.717 123.159 697.32 126.5 697.714C127.05 697.779 135.825 696.748 146 695.424ZM197 681.883C213.775 679.628 229.928 677.154 232.896 676.383C237.984 675.062 247.994 669.253 247.998 667.619C248 666.65 244.26 666.699 229.265 667.866C222.535 668.389 216.362 668.561 215.547 668.248C214.39 667.804 214.002 665.324 213.782 656.96L213.5 646.241L202.5 647.959C196.45 648.904 180.475 651.329 167 653.347C86.5509 665.397 86.3865 665.431 81.497 671.143C79.607 673.351 78.3212 675.579 78.6395 676.094C78.9845 676.653 83.9216 676.761 90.8592 676.362C103.254 675.65 111.248 676.757 124.24 680.981C140.655 686.319 144.076 686.916 155.5 686.44C161.55 686.188 180.225 684.137 197 681.883ZM302 613.039C302 611.213 303.603 610.809 320.749 608.314C338.744 605.695 345 605.311 345 606.823C345 607.921 343.8 608.148 323.5 610.885C315.25 611.997 307.038 613.173 305.25 613.499C303.267 613.86 302 613.681 302 613.039ZM2662 694.742C2672.56 693.341 2673.28 693.056 2672.72 690.52C2672.45 689.337 2670.83 682.236 2669.12 674.74C2667.4 667.245 2665.99 659.37 2665.98 657.24C2665.97 655.111 2665.64 652.912 2665.23 652.353C2664.74 651.672 2659.97 651.646 2650.75 652.275L2637 653.213V655.954C2637 657.461 2638.3 665.596 2639.89 674.032C2641.48 682.467 2643.08 691.069 2643.44 693.146L2644.1 696.924L2649.3 696.33C2652.16 696.004 2657.88 695.289 2662 694.742ZM53.6303 686.619C53.2986 685.381 53.0212 683.555 53.0136 682.56C53.0056 681.565 52.55 681.029 52 681.369C51.45 681.709 51 683.535 51 685.428C51 687.93 51.441 688.869 52.6166 688.869C53.8051 688.869 54.0736 688.273 53.6303 686.619ZM63.9103 680.339C65.0124 677.847 65.6533 675.129 65.3344 674.298C64.9837 673.384 65.2551 672.902 66.0211 673.078C67.8148 673.49 77.9046 657.029 82.2965 646.526C84.9015 640.296 87.6563 635.789 91.6192 631.276C97.6062 624.456 97.3756 623.777 89.8404 626.035C84.6917 627.577 78.4533 634.391 77.0294 640.028C73.9194 652.339 68.3632 664.539 61.2262 674.728C55.8234 682.441 55.3965 683.576 57.6766 684.165C61.3811 685.123 61.9478 684.775 63.9103 680.339ZM62.8993 667.369C66.4544 661.501 71.0424 650.339 74.1251 640.057C75.9973 633.813 77.0126 632.135 81.0858 628.557C83.7124 626.25 86.173 623.084 86.5635 621.508C87.2227 618.848 87.1053 618.698 84.8862 619.362C78.4372 621.294 77.0063 623.3 72.0553 637.355C67.5198 650.229 60.2144 666.68 56.8709 671.549C55.2919 673.848 54.0121 676.548 54.0269 677.549C54.0601 679.797 58.3546 674.869 62.8993 667.369ZM57.4195 666.029C62.3915 656.155 71.9531 631.958 71.0926 631.426C70.3481 630.966 66.2248 637.734 62.2937 645.869C60.499 649.582 57.8963 656.914 53.3294 671.119C52.0506 675.096 54.2004 672.421 57.4195 666.029ZM2654.25 649.307C2663.25 648.74 2665 648.364 2665 646.999C2665 646.102 2663.22 641.261 2661.06 636.241C2658.89 631.22 2655.97 623.14 2654.56 618.284L2652 609.455V554.227C2652 520.77 2652.38 497.988 2652.98 496.434C2654.18 493.277 2659.04 490.206 2664.24 489.329C2666.38 488.966 2668.37 488.07 2668.65 487.337C2669.39 485.408 2666.32 441.48 2663.41 412.369C2658.9 367.162 2651.24 310.639 2643.98 268.869C2636.73 227.205 2633.55 211.175 2622 158.116C2618.18 140.546 2608.36 100.895 2607.66 100.197C2606.89 99.4262 2599.81 102.198 2599.33 103.461C2599.09 104.066 2600.53 115.542 2602.51 128.965C2608.14 167.051 2614.73 217.1 2617.52 242.869C2618.92 255.794 2621.2 273.569 2622.58 282.369C2625.44 300.581 2629.28 329.02 2631.56 348.869C2635.99 387.499 2637.11 397.666 2638.5 411.869C2643.14 459.438 2645.51 521.44 2644.7 574.369C2644.12 612.346 2642.75 627.857 2638.96 639.313C2637.88 642.582 2637 646.57 2637 648.174C2637 650.912 2637.2 651.057 2640.25 650.538C2642.04 650.234 2648.34 649.68 2654.25 649.307ZM2622.93 648.218C2631.91 647.28 2632.75 645.727 2631.04 633.275C2630.33 628.086 2629.74 615.962 2629.73 606.334C2629.72 596.706 2629.53 589.004 2629.32 589.218C2629.1 589.432 2625.55 595.404 2621.41 602.488C2612.04 618.549 2593.76 646.857 2592.75 646.863C2590.76 646.877 2592.91 642.797 2603.83 625.788C2615.03 608.351 2615.72 606.968 2616.83 599.869C2618.6 588.551 2619.98 559.956 2619.91 535.869C2619.85 511.118 2619.13 504.171 2616.47 502.223C2614.45 500.747 2606.8 500.488 2594.9 501.494L2587.5 502.119V575.493V648.867L2602.1 648.868C2610.14 648.868 2619.51 648.576 2622.93 648.218ZM2637.05 622.799C2643.02 584.262 2638.95 438.837 2630.47 387.869L2629.06 379.369L2629.49 386.869C2629.72 390.994 2630.41 402.244 2631.01 411.869C2633.29 448.242 2633.8 476.262 2633.3 537.869C2632.62 621.03 2632.85 638.353 2634.59 636.616C2634.8 636.403 2635.91 630.185 2637.05 622.799ZM112.5 627.943C122.018 626.016 141.822 622.244 176 615.848C196.091 612.088 283.41 595.989 292.5 594.368L299.5 593.12L289.405 592.995C271.247 592.768 217.881 601.132 139.5 616.488C112.484 621.781 108.616 622.823 103.124 626.291C98.8536 628.986 97.7001 630.946 100.75 630.325C101.713 630.128 107 629.057 112.5 627.943ZM130 612.832C174.885 603.905 227.789 594.678 256 590.857C267.518 589.297 270.448 588.269 272.083 585.213C273.996 581.639 286.091 572.351 294.056 568.341C323.259 553.634 363.088 543.979 477.5 523.873C566.589 508.217 571.488 507.224 586.223 501.847C599.61 496.961 606.145 491.739 612.986 480.463L615.355 476.558L611.428 477.142C609.267 477.464 593.775 480.471 577 483.825C560.225 487.179 532.775 492.588 516 495.845C455.829 507.528 422.269 514.912 372.5 527.418C325.651 539.19 304.02 546.163 284.5 555.785C274.481 560.723 269.298 561.231 276.719 556.546C286.984 550.066 314.062 540.067 342.301 532.33C395.089 517.867 431.387 509.737 534.485 489.283C577.393 480.771 613.502 473.589 614.726 473.324C616.809 472.874 625.643 461.179 624.651 460.187C624.417 459.953 617.038 460.238 608.253 460.821C587.554 462.195 572.9 461.522 553.853 458.321C550.295 457.723 454.052 476.958 414 486.272C358.185 499.251 303.681 513.615 267 525.012C229.47 536.673 221.312 539.4 190.515 550.575C172.481 557.118 141.302 573.027 130.347 581.274C116.739 591.518 93.0042 615.28 93.0012 618.664C93.0002 620.239 91.8301 620.423 130 612.832ZM136.641 590.64C134.612 589.107 134.717 585.795 136.818 585.095C137.655 584.817 138.02 585.334 137.818 586.513C137.144 590.447 138.136 590.314 207 577.269C228.725 573.154 252.487 568.905 259.805 567.828C274.118 565.72 290 565.216 290 566.869C290 567.426 287.302 567.869 283.907 567.869C277.005 567.869 252.975 571.649 217 578.393C140.673 592.703 139.592 592.868 136.641 590.64ZM147.736 583.271C147.407 582.942 147.379 582.044 147.675 581.274C148.293 579.662 163.387 570.327 167.941 568.739C169.623 568.153 171 567.267 171 566.771C171 566.275 171.647 565.869 172.437 565.869C173.228 565.869 180.036 563.139 187.568 559.803C206.206 551.546 228.904 543.148 249.5 536.889C252.8 535.886 261.35 533.259 268.5 531.053C309.567 518.377 386.524 497.834 435.5 486.473C473.836 477.581 519.53 467.772 542.375 463.531C542.856 463.442 543.444 463.893 543.68 464.534C544.214 465.979 543.882 466.074 525.4 469.767C517.095 471.427 504.945 473.959 498.4 475.395C412.929 494.138 380.073 502.309 307 522.991C252.594 538.39 228.593 546.222 196.5 559.051C182.634 564.593 154.685 578.505 151.517 581.44C148.637 584.11 148.595 584.13 147.736 583.271ZM2630.31 527.369C2630.24 470.024 2629.28 439.14 2625.94 387.869C2623.47 349.864 2622.92 343.869 2621.89 343.869C2621.44 343.869 2619.94 345.529 2618.57 347.557C2613.75 354.647 2613.54 358.198 2615.41 402.086C2616.35 424.241 2617.39 452.984 2617.71 465.959L2618.3 489.549L2609.9 490.203C2605.28 490.562 2598.24 490.859 2594.25 490.863L2587 490.869V495.004V499.14L2599.25 498.509C2614.63 497.718 2617.8 498.369 2620.42 502.845C2622.22 505.925 2622.45 508.528 2622.81 529.811C2623.18 551.212 2621.93 585.305 2620.41 595.369C2619.84 599.173 2620.07 598.953 2625.09 590.869L2630.38 582.369L2630.31 527.369ZM377 591.912C430.855 585.509 518.509 576.17 560 572.414C621.247 566.87 638.822 565.41 698 560.951C751.929 556.887 764.102 556.018 810.358 552.931C828.755 551.703 837.453 550.753 837.971 549.915C838.387 549.242 839.029 545.244 839.398 541.03C839.767 536.816 841.113 527.294 842.39 519.869C843.666 512.444 844.663 506.307 844.605 506.231C844.547 506.156 840 506.488 834.5 506.969C829 507.45 810.775 508.978 794 510.363C761.947 513.01 691.977 519.497 686 520.375C682.706 520.859 641.835 525.094 608.5 528.404C600.25 529.224 590.125 530.338 586 530.88C581.875 531.422 569.95 532.78 559.5 533.898C549.05 535.015 529.475 537.268 516 538.905C502.525 540.542 485.65 542.568 478.5 543.408C446.081 547.217 411.887 552.002 360.059 559.98C342.217 562.726 325.117 564.868 322.059 564.739C313.102 564.36 300.612 569.537 286.463 579.492C275.068 587.51 274.948 587.346 292.323 587.527C308.208 587.693 324.299 589.946 337 593.781C341.083 595.014 345.173 595.573 348 595.284C350.475 595.032 363.525 593.514 377 591.912ZM2244.5 577.97C2261 577.323 2264.16 576.93 2268.5 574.993C2275.01 572.089 2278.7 568.532 2281.62 562.369C2283.77 557.82 2283.98 556.037 2283.99 542.619L2284 527.869L2275.25 527.891C2270.44 527.904 2239.05 528.569 2205.5 529.371C2171.95 530.172 2144.1 530.837 2143.62 530.848C2143.14 530.859 2142.94 537.106 2143.19 544.729C2143.59 557.347 2143.88 559.095 2146.39 564.237C2149.56 570.712 2153.95 574.466 2161.33 577.018C2165.85 578.579 2170.2 578.798 2196 578.76C2212.23 578.736 2234.05 578.381 2244.5 577.97ZM354.5 557.979C413.912 548.216 486.714 538.83 592.5 527.294C672.958 518.52 722.439 513.546 775.5 508.896C788.15 507.788 809.062 505.954 821.971 504.82C834.88 503.687 845.468 502.672 845.499 502.564C845.53 502.457 846.551 499.926 847.767 496.941C848.983 493.956 849.81 491.345 849.604 491.139C849.398 490.933 835.566 491.703 818.865 492.849C778.226 495.638 766.24 495.644 758.034 492.88C742.316 487.585 736.861 476.787 744.12 465.341C746.965 460.854 747.089 460.332 745.525 459.395C744.582 458.831 737.666 454.038 730.155 448.745L716.5 439.122L711.5 442.083C703.322 446.926 681.192 457.341 671 461.144C659.78 465.33 643.72 470.008 632.365 472.397C627.891 473.338 623.778 474.392 623.225 474.738C622.672 475.085 620.632 478.069 618.692 481.369C611.142 494.208 602.779 501.105 587.844 506.808C575.848 511.389 562.435 514.336 524 520.834C517.125 521.997 506.775 523.823 501 524.893C495.225 525.963 482.625 528.2 473 529.863C413.935 540.073 358.933 551.449 335 558.406C314.586 564.34 315.973 564.309 354.5 557.979ZM911 546.396C942.075 544.49 975.15 542.457 984.5 541.878C1009.24 540.348 1065.09 537.163 1098.5 535.378C1114.45 534.526 1139.43 533.17 1154 532.365C1168.57 531.559 1199.18 529.987 1222 528.872C1310.12 524.564 1324.49 523.868 1355.5 522.408C1373.1 521.579 1396.72 520.45 1408 519.899C1419.28 519.349 1438.62 518.434 1451 517.867C1494.07 515.894 1512.3 514.903 1512.69 514.514C1513.21 513.989 1513.13 515.486 1518.5 412.369C1519.82 387.199 1520.88 369.591 1523.99 321.369C1524.52 313.119 1525.42 296.919 1525.98 285.369C1526.55 273.819 1527.91 249.069 1529 230.369C1530.1 211.669 1532.36 172.294 1534.03 142.869C1535.69 113.444 1537.44 84.1936 1537.9 77.8687C1538.37 71.5437 1538.6 66.2074 1538.43 66.0103C1538.26 65.8132 1524.93 66.4031 1508.81 67.3211C1399.25 73.5606 1332 84.5451 1266.5 106.9C1184.14 135.012 1112.75 174.726 982 265.176C931.796 299.906 922.812 307.141 916.16 318.208C912.807 323.784 907.834 335.036 908.45 335.652C908.631 335.833 913.892 332.268 920.14 327.729C931.477 319.492 953.242 304.278 975 289.379C981.325 285.048 992.35 277.49 999.5 272.584C1018.53 259.526 1051.11 238.026 1070 226.058C1178.18 157.516 1250.18 129.135 1343 118.439C1378.08 114.396 1421.05 111.613 1450.5 111.476C1471.23 111.379 1472.83 111.505 1478.16 113.658C1485.71 116.708 1491.36 122.867 1493.57 130.446C1496 138.826 1495.25 145.693 1484.34 214.369C1481.81 230.319 1479.53 244.719 1479.28 246.369C1479.03 248.019 1477.53 257.244 1475.95 266.869C1474.36 276.494 1471.94 292.019 1470.57 301.369C1469.19 310.719 1466.96 324.894 1465.61 332.869C1464.27 340.844 1461.99 354.794 1460.57 363.869C1456.33 390.758 1455.94 392.985 1453.85 401.869C1448.11 426.274 1431.64 446.706 1406.71 460.35C1399.71 464.178 1394.42 466.111 1384.98 468.279C1370.68 471.567 1358.01 472.54 1240.5 479.377C1132.68 485.65 973.019 496.077 910.5 500.928C895.65 502.08 876.163 503.564 867.196 504.225C855.474 505.089 850.652 505.813 850.041 506.802C848.611 509.116 842.915 548.621 843.781 550.219C844.034 550.686 846.55 550.797 849.371 550.465C852.192 550.133 879.925 548.302 911 546.396ZM2127.2 528.229L2138.9 527.617L2138.7 518.993C2138.59 514.25 2138.87 507.487 2139.32 503.965L2140.13 497.562L2131.82 498.209C2127.24 498.565 2114.16 498.859 2102.75 498.863L2082 498.869V514.502V530.136L2098.75 529.489C2107.96 529.133 2120.77 528.566 2127.2 528.229ZM2230 525.828C2252.82 525.303 2274.38 524.872 2277.89 524.871L2284.28 524.869L2283.71 513.619C2283.39 507.431 2282.63 500.652 2282 498.554L2280.87 494.739L2259.69 495.328C2248.03 495.651 2217.57 496.384 2192 496.956C2164.29 497.576 2145.1 498.394 2144.5 498.981C2143.95 499.523 2143.34 506.274 2143.15 513.984L2142.81 528.002L2165.65 527.392C2178.22 527.057 2207.18 526.353 2230 525.828ZM1594.5 511.853C1623.1 510.77 1658.2 509.428 1672.5 508.871C1707.15 507.522 1773.67 505.195 1815 503.886C1833.43 503.303 1861.55 502.391 1877.5 501.86C1907.34 500.867 1998.93 498.299 2048.5 497.066L2076.5 496.369L2076.21 459.869C2076.05 439.794 2075.68 420.894 2075.39 417.869L2074.86 412.369L2016.18 414.043C1948.21 415.982 1856.63 418.457 1800 419.886C1778.28 420.434 1734.18 421.591 1702 422.456C1611.7 424.884 1609.1 424.809 1597.42 419.46C1587.21 414.788 1581.65 406.437 1578.98 391.774C1575.41 372.216 1580.12 153.5 1584.5 135.069C1587.06 124.325 1590.87 118.444 1598.42 113.599C1607.06 108.058 1612 106.845 1630 105.856C1680.16 103.1 1897.12 100.389 1995.32 101.29L2068.14 101.959L2067.49 97.1638C2066.4 89.0547 2063.97 81.6763 2060.99 77.4274C2055 68.8806 2050.3 65.3047 2040.35 61.7268C2035.08 59.8305 2031.1 59.5289 2000 58.6686C1961.14 57.5936 1777.04 58.3721 1712.5 59.8844C1641.79 61.5412 1553.67 64.5174 1547.31 65.4635C1544.41 65.894 1544.06 66.3314 1543.55 70.1535C1543.01 74.221 1540.75 109.176 1539.5 132.869C1539.16 139.194 1538.23 154.719 1537.43 167.369C1536.62 180.019 1535.09 206.569 1534.02 226.369C1532.95 246.169 1530.94 281.494 1529.56 304.869C1527.22 344.234 1523.8 405.103 1522.52 429.869C1520.86 462.164 1518.96 497.551 1518.45 505.743L1517.86 515.117L1530.18 514.47C1536.96 514.114 1565.9 512.937 1594.5 511.853ZM869.234 501.392C897.227 498.851 1003.6 491.215 1099 484.899C1115.78 483.788 1156.5 481.298 1189.5 479.365C1222.5 477.432 1256.7 475.393 1265.5 474.834C1274.3 474.275 1288.93 473.39 1298 472.868C1365.66 468.97 1377.55 467.793 1390.92 463.67C1409.67 457.886 1429.97 442.71 1439.58 427.3C1448.17 413.518 1451.31 403.959 1454.95 380.625C1456 373.884 1459.14 353.969 1461.93 336.369C1464.72 318.769 1468.35 295.819 1469.98 285.369C1471.62 274.919 1476.33 245.219 1480.44 219.369C1489.4 163.098 1492 145.12 1492 139.47C1492 130.153 1487.93 122.394 1481.25 118.956C1478.48 117.528 1478.25 118.92 1480.98 120.625C1483.69 122.313 1487.67 130.463 1488.46 135.9C1489.43 142.653 1487.06 157.766 1466.48 276.369C1465.05 284.619 1460.97 308.694 1457.41 329.869C1446.13 396.913 1445.2 401.579 1441.17 410.972C1436.4 422.092 1425.18 435.233 1414.28 442.473C1401.71 450.813 1384.67 456.818 1367.99 458.779C1355.4 460.26 1325.48 462.115 1197.5 469.352C1183.2 470.16 1146.03 472.405 1114.89 474.341C1083.75 476.276 1050.45 478.319 1040.89 478.88C1011.84 480.585 928.594 485.789 891.992 488.189C873.013 489.433 856.879 490.825 856.14 491.282C853.873 492.683 850.16 502.869 851.916 502.869C852.494 502.869 860.287 502.204 869.234 501.392ZM2235.34 492.886C2258.91 492.409 2278.48 491.726 2278.83 491.368C2279.19 491.011 2277.41 488.757 2274.87 486.358C2266.85 478.781 2264.16 478.373 2224.5 478.712C2179.14 479.1 2165.93 479.924 2159.49 482.765C2154.5 484.973 2148.72 489.739 2146.83 493.222C2145.85 495.01 2146.64 495.051 2169.16 494.415C2182 494.052 2211.78 493.364 2235.34 492.886ZM796.5 488.911C803.65 488.373 818.725 487.418 830 486.788C848.422 485.758 850.677 485.439 852.25 483.645C853.213 482.546 854 480.757 854 479.668C854 477.577 852.765 477.561 831.5 479.369C816.083 480.68 782.88 482.059 776.227 481.665C763.389 480.903 758.491 476.85 760.858 468.949C762.273 464.225 765.636 461.096 791.497 440.442C822.592 415.608 858.529 388.225 887.379 367.381C895.631 361.419 897.203 359.83 898.084 356.555C899.883 349.877 899.068 349.169 894 353.005C891.525 354.879 883.65 360.674 876.5 365.883C844.226 389.398 769.323 448.095 756.598 459.843C749.922 466.006 746 471.609 746 474.984C746 478.721 751.299 484.671 756.792 487.101C759.152 488.145 763.877 489.34 767.292 489.757C773.777 490.549 775.316 490.505 796.5 488.911ZM2615.18 477.869C2615.05 472.644 2614.01 445.419 2612.88 417.369C2611.74 389.319 2611.08 363.739 2611.4 360.526C2612.12 353.339 2614.72 347.403 2619.01 343.097C2622.17 339.934 2622.26 339.624 2621.65 333.822C2621.31 330.52 2619.89 315.793 2618.5 301.094C2615.08 264.786 2611.43 231.171 2608.44 208.369C2604.55 178.684 2595.13 113.588 2592.87 100.869C2591.75 94.5437 2590.61 87.7937 2590.33 85.8687C2589.41 79.4835 2589.38 79.4746 2583.01 83.9432C2569.18 93.642 2562.33 104.791 2561.31 119.253C2560.96 124.206 2561.4 133.537 2562.41 142.902C2563.34 151.408 2564.73 164.219 2565.51 171.369C2573.38 243.763 2578.28 302.616 2581.97 368.869C2583.82 402.106 2587 474.956 2587 484.146L2587 487.924L2601.21 487.646L2615.42 487.369L2615.18 477.869ZM917.133 481.386C947.585 479.47 979.25 477.447 987.5 476.891C1012.88 475.179 1049.25 472.928 1076.5 471.385C1113.02 469.315 1117.57 469.045 1144 467.367C1156.93 466.546 1191.35 464.508 1220.5 462.839C1249.65 461.169 1283.85 459.13 1296.5 458.308C1309.15 457.486 1330.53 456.152 1344 455.343C1358.27 454.487 1372.27 453.089 1377.52 451.996C1409.04 445.437 1432.04 426.415 1439.4 400.816C1441.12 394.819 1448.06 356.008 1456.02 307.869C1458.87 290.604 1470.59 222.061 1478.49 176.369C1483.73 146.065 1484.5 138.731 1483 133.361C1481.28 127.243 1475.14 120.475 1469.23 118.194C1465.2 116.638 1461.81 116.395 1446.28 116.548C1411.78 116.888 1348.81 121.824 1320 126.446C1265.51 135.188 1218.49 150.623 1165 177.326C1155.38 182.131 1147.05 186.412 1146.5 186.841C1145.95 187.27 1141 189.999 1135.5 192.906C1130 195.813 1124.38 198.956 1123 199.892C1121.62 200.827 1115.78 204.286 1110 207.578C1097.63 214.63 1091.77 218.223 1071 231.504C1038.9 252.032 1032.97 255.96 995.821 281.392C983.856 289.582 983.104 290.295 982.472 294.037C982.103 296.219 982.019 298.221 982.284 298.486C982.55 298.752 994.857 290.695 1009.63 280.583C1039.5 260.143 1062.92 244.672 1070.5 240.368C1073.25 238.807 1076.29 236.858 1077.26 236.036C1080.98 232.88 1113.65 213.303 1135.36 201.225C1152.99 191.42 1182.47 176.402 1193 171.865C1197.12 170.088 1202.5 167.736 1204.94 166.639C1228.94 155.86 1262.52 145.262 1294.74 138.296C1330.94 130.469 1396.2 124 1443.5 123.55C1465.12 123.344 1468.23 124.087 1473.36 130.687C1476.21 134.354 1476.22 134.413 1475.66 145.369C1475.34 151.419 1474.2 160.869 1473.1 166.369C1472.01 171.869 1469.49 186.044 1467.5 197.869C1465.51 209.694 1462.08 229.269 1459.87 241.369C1457.67 253.469 1454.76 269.669 1453.42 277.369C1452.08 285.069 1449.86 297.669 1448.5 305.369C1447.13 313.069 1444.44 328.369 1442.52 339.369C1440.6 350.369 1437.65 367.244 1435.96 376.869C1434.28 386.494 1432.03 397.299 1430.98 400.88C1425.78 418.501 1411.49 432.906 1391.94 440.247C1383.27 443.5 1365.38 446.556 1350.5 447.323C1336.66 448.037 1315.56 449.273 1281.5 451.366C1268.3 452.178 1245.57 453.522 1231 454.354C1216.43 455.186 1193.93 456.541 1181 457.365C1168.07 458.189 1135 460.203 1107.5 461.84C1046.54 465.47 1030.11 466.48 1000.5 468.419C893.21 475.446 870.868 476.857 866.5 476.876C860.397 476.904 859.446 477.471 858.546 481.619C857.938 484.421 858.112 484.869 859.804 484.869C860.883 484.869 886.681 483.301 917.133 481.386ZM823 474.889C840.325 473.803 857.218 472.653 860.54 472.334L866.581 471.754L870.842 449.062C878.748 406.962 884.001 377.374 883.719 376.528C883.565 376.066 880.753 377.681 877.47 380.119C843.676 405.205 835.619 411.366 806 434.775C774.552 459.63 765 468.189 765 471.518C765 477.379 774.49 477.931 823 474.889ZM787.5 468.674C784.789 467.137 784.033 465.845 784.015 462.722C784.004 460.696 785.584 458.685 790.75 454.155C804.387 442.195 855.571 402.383 866.25 395.429C868.804 393.766 869.176 393.754 871.474 395.26C873.53 396.607 873.849 397.428 873.365 400.125C869.584 421.169 861.649 458.646 860.506 460.857C858.105 465.5 852.568 466.603 823 468.327C791.854 470.144 790.122 470.161 787.5 468.674ZM823.349 465.279C852.964 463.605 857.266 462.806 858.911 458.671C860.361 455.025 870.989 398.66 870.405 397.714C870.115 397.246 868.893 397.388 867.689 398.03C865.85 399.01 848.129 412.204 840.169 418.519C835.569 422.169 830.129 426.407 827.34 428.513C817.332 436.072 792.88 455.705 789.75 458.693C785.75 462.513 785.294 463.762 787.2 465.669C788.726 467.194 789.609 467.185 823.349 465.279ZM877.47 468.619C877.778 466.831 879.181 459.069 880.588 451.369C881.994 443.669 883.528 435.119 883.996 432.369C885.61 422.879 895.124 371.362 895.697 369.011C896.203 366.931 896.048 366.781 894.385 367.733C888.493 371.106 888.098 371.917 885.572 385.869C884.228 393.294 881.735 406.569 880.032 415.369C875.707 437.724 870.007 469.124 870.003 470.619C870.001 471.378 871.356 471.869 873.455 471.869C876.571 471.869 876.964 471.55 877.47 468.619ZM642.053 466.95C659.032 462.643 668.156 459.497 684 452.486C696.918 446.77 712.262 438.583 712.739 437.152C712.934 436.567 711.5 435.104 709.552 433.901L706.011 431.712L691.755 438.73C677.553 445.721 652.907 454.612 641.5 456.858C638.2 457.508 634.49 458.234 633.255 458.472C631.704 458.771 630.078 460.752 627.991 464.886C626.33 468.177 625.339 470.869 625.789 470.869C626.238 470.869 633.557 469.105 642.053 466.95ZM906.687 469.225L911.874 468.654L907.716 465.482C896.182 456.685 891.397 442.304 897.564 434.975C900.702 431.245 905.28 429.882 914.685 429.874L921.87 429.868L921.311 421.118C920.246 404.467 927.393 378.348 935.302 369.988C939.457 365.596 949.68 358.982 958.5 354.979C971.209 349.212 970.417 349.936 971.254 343.33C971.67 340.051 972.92 331.117 974.031 323.478C975.143 315.838 975.846 309.381 975.594 309.129C975.342 308.877 966.668 314.711 956.318 322.093C939.856 333.835 902.761 360.095 902.353 360.296C902.272 360.336 900.352 370.718 898.086 383.368C893.284 410.175 892.412 414.968 886.984 444.368C884.75 456.468 882.693 467.436 882.411 468.741L881.9 471.114L891.7 470.455C897.09 470.093 903.834 469.539 906.687 469.225ZM951.798 465.267L960.096 464.681L955.298 461.676C944.227 454.743 938.828 446.572 939.774 438.181L940.297 433.545L927.398 434.203C920.304 434.565 911.892 434.862 908.705 434.865C903.811 434.868 902.507 435.27 900.33 437.448C898.059 439.719 897.825 440.575 898.375 444.589C899.831 455.213 907.135 463.377 917.5 465.965C920.473 466.708 935.812 466.395 951.798 465.267ZM1015.74 460.443C1026.72 456.687 1034.59 451.409 1037.48 445.869C1038.2 444.494 1039.11 440.341 1039.51 436.641L1040.23 429.914L1032.36 430.388C1028.04 430.648 1011 431.315 994.5 431.87C978 432.424 959.683 433.149 953.795 433.48L943.091 434.081L942.453 438.334C941.641 443.747 944.113 448.875 950.271 454.551C959.747 463.285 962.877 464.008 988.24 463.32C1006.38 462.827 1009.83 462.467 1015.74 460.443ZM1077.53 458.371C1112.47 456.01 1137.07 454.531 1219.5 449.836C1298.9 445.312 1368.84 440.763 1374 439.786C1392.03 436.372 1402.56 431.3 1412.83 421.093C1423.3 410.686 1426.1 404.201 1430.01 381.295C1431.68 371.533 1434.87 353.38 1437.09 340.957C1439.32 328.533 1442.66 309.594 1444.51 298.869C1446.36 288.144 1450.35 265.644 1453.39 248.869C1464.89 185.318 1471 148.482 1471 142.727C1471 135.461 1469.15 131.596 1464.8 129.759C1459.67 127.596 1422.23 128.554 1380 131.929C1297.07 138.556 1243.46 152.653 1176.5 185.445C1160.67 193.196 1127.53 211.087 1115.5 218.37C1106.74 223.676 1077.58 241.736 1072 245.312C1060.32 252.795 998.924 293.984 991.056 299.612L981.611 306.369L979.447 321.869C978.258 330.394 976.972 339.788 976.591 342.745L975.898 348.121L978.699 347.492C998.373 343.072 1010.07 344.759 1030.76 355.003C1040.06 359.603 1045.93 365.351 1047.84 371.717C1050.49 380.572 1053.97 411.189 1053.99 425.787C1054 434.299 1052.33 445.217 1050.47 448.869C1048.68 452.365 1045.33 455.22 1039.5 458.21C1034.74 460.652 1034.65 460.778 1037.53 460.822C1039.2 460.848 1057.2 459.745 1077.53 458.371ZM2191 458.868C2219.32 458.306 2271.07 457.412 2306 456.88C2340.93 456.349 2373.1 455.69 2377.5 455.416C2381.9 455.142 2410.7 454.629 2441.5 454.277C2472.3 453.925 2497.84 453.438 2498.25 453.194C2498.66 452.95 2499 452.094 2499 451.291C2499 450.039 2495.89 449.906 2477.25 450.358C2465.29 450.648 2423.55 451.342 2384.5 451.901C2345.45 452.459 2290.1 453.357 2261.5 453.896C2232.9 454.435 2180.71 455.353 2145.52 455.935C2110.33 456.518 2081.36 457.172 2081.15 457.389C2080.93 457.605 2080.98 458.364 2081.25 459.076C2081.83 460.579 2107.18 460.531 2191 458.868ZM1043.75 449.558C1048.36 445.385 1049.8 431.971 1048.08 409.369C1046.09 383.256 1043.49 371.216 1038.7 365.991C1036.57 363.664 1014.14 352.391 1013.31 353.227C1013.08 353.454 1017.18 355.947 1022.41 358.767C1032.3 364.101 1035.9 367.623 1037.84 373.869C1041.32 385.074 1043.49 433.317 1040.97 443.176C1040.16 446.309 1038.39 449.384 1035.87 452.007C1033.74 454.221 1032 456.263 1032 456.545C1032 457.336 1041.21 451.856 1043.75 449.558ZM648 449.706C658.795 446.963 683.353 437.841 685.45 435.795C686.036 435.224 684.353 434.869 681.054 434.869C678.114 434.869 671.778 433.892 666.973 432.699L658.236 430.529L646.868 439.16C640.616 443.907 633.925 449.166 632 450.846L628.5 453.9L632.5 453.264C634.7 452.914 641.675 451.313 648 449.706ZM2195.5 451.834C2230.7 451.276 2301.35 450.168 2352.5 449.372C2403.65 448.576 2457.5 447.635 2472.18 447.28L2498.85 446.636L2498.54 442.502C2498.36 440.229 2498.17 437.099 2498.11 435.547L2498 432.726L2472.25 433.323C2449.28 433.856 2402.45 434.723 2308 436.365C2291.23 436.657 2248.48 437.337 2213 437.877C2177.52 438.418 2144.23 439.085 2139 439.36C2133.77 439.636 2119.52 439.896 2107.33 439.937C2095.14 439.979 2084.23 440.258 2083.08 440.557C2081.24 441.038 2081 441.858 2081 447.533V453.964L2106.25 453.407C2120.14 453.1 2160.3 452.392 2195.5 451.834ZM2519.06 451.229C2521.58 450.221 2523.51 448.654 2524.08 447.164C2525.64 443.052 2525.22 427.622 2523.47 425.13C2521.53 422.364 2516.23 420.881 2508.25 420.874L2502 420.869V436.869V452.869H2508.48C2512.15 452.869 2516.74 452.158 2519.06 451.229ZM2679.6 443.4C2689.3 441.113 2691 440.058 2691 436.33C2691 432.244 2688.81 426.988 2685.45 422.989C2682.42 419.395 2677.91 418.83 2672.9 421.419L2669.9 422.97L2670.51 431.669C2671.21 441.746 2671.75 444.874 2672.77 444.854C2673.17 444.846 2676.25 444.192 2679.6 443.4ZM2222.5 434.912C2252.75 434.36 2303.38 433.454 2335 432.898C2366.62 432.343 2402.62 431.663 2415 431.388C2427.38 431.112 2451.07 430.605 2467.66 430.261L2497.81 429.635L2498.19 425.677C2498.4 423.5 2498.25 421.521 2497.86 421.28C2497.47 421.038 2473.83 421.302 2445.32 421.867C2416.82 422.432 2354.8 423.551 2307.5 424.354C2260.2 425.157 2189.89 426.367 2151.25 427.042L2081 428.271V432.728V437.186L2124.25 436.551C2148.04 436.201 2192.25 435.464 2222.5 434.912ZM748.5 414.505C756.2 409.013 767.45 400.833 773.5 396.326C783.484 388.889 832.027 353.476 875.5 321.914C884.85 315.126 894.075 308.38 896 306.923C901.549 302.722 949.114 268.864 967 256.383C972.225 252.738 980.325 247.057 985 243.76C991.939 238.867 1033 211.444 1054.5 197.344C1129.78 147.974 1205.5 109.839 1268.79 89.4215C1357.85 60.6924 1431.54 52.0392 1640 45.8333C1743.83 42.7423 1779.47 42.305 1912 42.4966C2135.54 42.8197 2349.01 51.1544 2485.25 64.8792C2496.11 65.9734 2508.94 66.8646 2513.75 66.8596C2524.25 66.8487 2540.77 63.3469 2550.67 59.0341C2554.43 57.3986 2559.3 55.3147 2561.5 54.4031C2564.72 53.0707 2565.19 52.5691 2563.9 51.844C2559.31 49.2489 2532.18 44.6574 2499.5 40.9463C2461.16 36.5916 2344.56 28.4003 2292.5 26.4034C2284.25 26.087 2273.45 25.6147 2268.5 25.354C2230.11 23.3319 2181.88 21.5853 2115 19.7951C2052.47 18.1215 1844.09 17.4858 1779.5 18.7717C1682.69 20.699 1594.1 24.1638 1520.5 28.9016C1399.09 36.7168 1326.25 50.137 1249 78.9171C1219.26 89.9985 1181.83 107.202 1149.5 124.651C1130.81 134.736 1120 141.09 1120 141.983C1120 143.484 1114.5 149.17 1109.59 152.758C1106.79 154.798 1093.93 163.19 1081 171.407C1053.07 189.163 972.44 243.112 951.688 257.928C946.634 261.536 939.575 266.535 936 269.038C891.505 300.187 873.977 312.682 827.5 346.382C813.2 356.751 798.951 367.065 795.835 369.302C788.627 374.477 763.94 392.49 753.5 400.193C749.1 403.439 738.075 411.051 729 417.11C719.925 423.168 712.405 428.405 712.289 428.747C712.173 429.089 713.684 430.587 715.647 432.077L719.215 434.785L726.857 429.637C731.061 426.806 740.8 419.996 748.5 414.505ZM701.533 427.869C717.392 419.254 735.303 407.206 765.5 384.841C770.45 381.175 785.3 370.386 798.5 360.864C811.7 351.342 824.75 341.899 827.5 339.879C860.905 315.343 946.824 254.52 977.5 233.693C1003.08 216.327 1049.27 185.474 1066.61 174.173C1083.38 163.237 1086.41 160.447 1088.44 154.049C1089.03 152.21 1088.35 151.762 1082.3 149.972C1078.56 148.866 1073.32 147.478 1070.65 146.888L1065.8 145.814L1038.65 163.018C982.361 198.685 912.175 245.243 862.5 279.864C808.728 317.34 787.948 332.332 733 373.29C688.299 406.611 662.01 426.872 662.004 428.008C662 428.61 671.548 431.329 677 432.277C678.375 432.516 682.665 432.596 686.533 432.454C692.676 432.229 694.575 431.649 701.533 427.869ZM993.699 427.027C1018.56 426.079 1039.23 424.971 1039.64 424.565C1040.62 423.577 1037.31 383.863 1035.66 376.806C1034.03 369.874 1033.23 368.562 1031.15 369.378C1027.47 370.822 1000.24 372.674 956.25 374.473C943.309 375.002 940 374.875 940 373.848C940 370.855 935.944 376.48 933.591 382.735C927.974 397.668 925.206 413.358 926.442 423.25L927.144 428.869L937.822 428.809C943.695 428.776 968.84 427.974 993.699 427.027ZM1724 416.876C1743.53 416.325 1796.4 414.969 1841.5 413.864C1886.6 412.759 1936.55 411.42 1952.5 410.889C1968.45 410.358 2002.43 409.403 2028 408.766C2053.57 408.129 2074.69 407.437 2074.93 407.227C2075.79 406.455 2068.48 108.057 2067.57 107.114C2067.43 106.973 2037.21 106.578 2000.41 106.236C1906.01 105.357 1689.56 108.032 1632 110.789C1613.6 111.67 1607.8 112.988 1600.64 117.924C1592.8 123.326 1588.58 133.478 1587.55 149.369C1585.2 185.549 1583.01 273.122 1582.88 335.369C1582.8 380.247 1583.01 388.317 1584.42 394.293C1587.56 407.596 1593.84 414.21 1606.5 417.544C1612.04 419.002 1657.98 418.741 1724 416.876ZM2117.5 406.366C2149.37 405.723 2308.31 401.26 2329.5 400.413C2353.57 399.45 2364.87 395.676 2390.99 379.874C2411.67 367.364 2425.66 357.206 2435.12 347.826C2444.23 338.801 2447.27 334.093 2449.04 326.204C2452.65 310.204 2447.03 229.203 2437.88 165.428C2434.6 142.539 2432.76 136.935 2426.16 129.628C2418.55 121.201 2410.09 118.909 2377.5 116.448C2316.25 111.822 2233.52 108.855 2120.59 107.235L2072.68 106.548L2073.35 130.458C2073.71 143.609 2074.45 172.819 2074.97 195.369C2075.5 217.919 2076.19 246.719 2076.51 259.369C2076.82 272.019 2077.5 300.594 2078.02 322.869C2078.54 345.144 2079.27 373.387 2079.64 385.632L2080.31 407.896L2084.91 407.413C2087.43 407.148 2102.1 406.677 2117.5 406.366ZM2628.71 373.63C2628.47 372.386 2628.26 373.169 2628.25 375.369C2628.24 377.569 2628.44 378.586 2628.69 377.63C2628.94 376.674 2628.95 374.874 2628.71 373.63ZM992.949 369.855C1012.45 368.764 1028.78 367.489 1029.25 367.022C1030.33 365.937 1014.24 356.616 1005.88 353.488C995.61 349.648 992.647 349.5 981.706 352.284C976.319 353.654 967.95 356.524 963.108 358.661C954.119 362.627 941 370.621 941 372.131C941 372.591 944.713 372.714 949.25 372.403C953.787 372.093 973.452 370.946 992.949 369.855ZM928 338.475C940.375 329.677 956.062 318.517 962.86 313.674C969.658 308.831 975.563 304.869 975.981 304.869C976.76 304.869 978.399 294.934 977.73 294.266C977.308 293.843 966.943 300.883 942.5 318.19C933.15 324.811 921.08 333.353 915.678 337.172C905.734 344.203 904.838 345.317 903.576 352.217C903.02 355.259 903.148 355.898 904.186 355.268C904.909 354.83 915.625 347.273 928 338.475ZM1101.15 152.123C1107.78 148.172 1114.76 142.332 1113.9 141.453C1113.57 141.115 1107.08 139.298 1099.47 137.415L1085.64 133.992L1078.82 138.044C1075.07 140.273 1072 142.483 1072 142.955C1072 143.427 1074.59 144.565 1077.75 145.484C1080.91 146.403 1085.46 147.997 1087.86 149.025C1092.42 150.978 1092.7 151.895 1090.43 157.366C1089.6 159.351 1089.61 159.352 1092.55 157.427C1094.17 156.362 1098.04 153.975 1101.15 152.123ZM1128.36 133.023C1148.12 121.258 1191.35 99.632 1218 88.1793C1257.91 71.0257 1299.2 57.7514 1341.5 48.4729C1368.14 42.6302 1399.37 37.4405 1429 33.9334C1476.42 28.3208 1531.07 24.6587 1623.5 20.8983C1637.25 20.339 1653.9 19.6501 1660.5 19.3675C1719.16 16.8555 1832.56 14.8855 1918.5 14.8855C2145.45 14.8855 2414.01 26.3232 2519.28 40.4729C2525.76 41.344 2531.64 41.8368 2532.34 41.568C2533.59 41.0897 2536.2 32.0057 2535.45 30.7817C2535.24 30.4407 2532.01 29.8746 2528.28 29.5236C2524.55 29.1726 2512.73 27.967 2502 26.8443C2484.19 24.9796 2469.04 23.6801 2432.36 20.8683C2370.46 16.1228 2266.43 10.8781 2194 8.85082C2173.38 8.27357 2141.43 7.3303 2123 6.75466C2069.4 5.08005 1851.95 4.46828 1782 5.79531C1721.66 6.94008 1621.94 9.86665 1574.5 11.8852C1544.4 13.1659 1480.66 16.7037 1476 17.3529C1474.07 17.6207 1465.97 18.3159 1458 18.8978C1411.53 22.2882 1343.87 32.2501 1309 40.8366C1281.53 47.6005 1266.35 51.5894 1255.22 54.9688C1241.04 59.2749 1213.38 68.9859 1203.5 73.1277C1177.05 84.2126 1154.17 94.9662 1133 106.256C1115.64 115.514 1092.02 129.149 1092.01 129.922C1092 130.226 1096.39 131.529 1101.75 132.818C1107.11 134.107 1113.07 135.739 1115 136.445C1119.9 138.24 1119.37 138.376 1128.36 133.023ZM2606.67 93.7294C2608.56 92.1549 2617.61 62.8687 2616.2 62.8687C2615.86 62.8687 2610.7 65.6812 2604.72 69.1187C2594.86 74.7852 2593.89 75.6021 2594.29 77.8687C2594.54 79.2437 2595.29 83.7437 2595.96 87.8687C2597.73 98.6856 2597.38 98.1565 2601.65 96.3701C2603.68 95.5208 2605.94 94.3325 2606.67 93.7294ZM2604.5 66.0066C2612.33 61.5294 2616.46 58.5968 2616.37 57.563C2616.3 56.6919 2614.07 53.0293 2611.43 49.4239C2606.97 43.3493 2603.99 41.4543 2602.56 43.7743C2601.83 44.9497 2586 50.6753 2579.8 52.005C2577.16 52.5712 2575 53.2041 2575 53.4114C2575 53.6188 2577.21 55.8577 2579.92 58.3868C2582.62 60.9158 2586.33 65.1973 2588.17 67.9011C2590 70.6049 2591.73 72.8281 2592 72.8417C2592.27 72.8552 2597.9 69.7794 2604.5 66.0066ZM2581.56 48.8158C2589.84 46.6759 2602.7 41.2377 2601.75 40.2832C2600.3 38.8334 2542.06 31.3956 2541 32.5249C2540.56 32.989 2539.9 35.635 2539.54 38.405L2538.87 43.4414L2548.51 45.2419C2553.81 46.2322 2560.48 47.8705 2563.33 48.8825C2570.07 51.2794 2572.06 51.2721 2581.56 48.8158Z" fill="#1E5A7A"/>
</svg>
