<svg width="2711" height="981" viewBox="0 0 2711 981" fill="none" xmlns="http://www.w3.org/2000/svg">
<path d="M525.303 980.268C514.506 979.367 501.313 977.583 495.303 976.211C472.726 971.056 448.762 961.447 431.803 950.749C429.603 949.361 427.128 947.977 426.303 947.674C418.476 944.799 388.305 918.05 376.233 903.283C368.553 893.888 359.133 879.31 354.16 869.122C351.944 864.584 349.721 860.872 349.218 860.872C348.715 860.872 348.303 860.347 348.303 859.707C348.303 857.222 342.031 842.981 340.714 842.475C339.948 842.182 331.371 843.051 321.652 844.407C311.934 845.762 303.695 846.872 303.344 846.872C302.992 846.872 302.884 848.407 303.103 850.283C303.782 856.097 302.985 856.206 268.94 854.96C252.365 854.354 222.828 853.414 203.303 852.871C145.672 851.271 144.516 851.109 110.24 839.889C100.1 836.569 90.9034 833.44 89.8034 832.935C88.7034 832.43 83.9784 830.8 79.3034 829.314C74.6284 827.828 68.2405 825.55 65.1081 824.252C61.9756 822.954 54.3256 820.514 48.1081 818.829C33.4074 814.845 27.5042 812.075 21.248 806.223C15.213 800.578 13.3034 797.26 13.3034 792.42C13.3034 789.313 13.9174 788.427 18.2054 785.346C23.2822 781.699 24.3054 780.221 24.3005 776.54C24.2984 774.918 22.8536 773.615 18.5679 771.372C13.9972 768.978 12.6508 767.704 11.912 765.073C10.6164 760.457 13.1866 757.357 22.4414 752.372C27.1125 749.855 29.7848 747.815 29.6453 746.872C29.5233 746.047 29.1365 742.341 28.7856 738.637L28.1475 731.903L23.304 730.464C15.0724 728.02 14.3034 727.334 14.3034 722.434C14.3034 718.435 14.5687 717.975 17.4526 716.969C19.1847 716.366 22.1097 715.872 23.9526 715.872H27.3034L27.2897 709.122C27.2734 701.024 26.544 697.872 24.6868 697.872C23.9229 697.872 23.2973 698.879 23.2897 700.122C23.2629 704.545 22.0968 706.6 18.6916 708.224C14.4274 710.257 9.33576 710.33 4.77127 708.423L1.30338 706.974L1.30058 687.173C1.29898 676.282 1.00576 659.017 0.64888 648.806L0 630.24L3.04187 628.98C5.04893 628.149 6.26964 626.81 6.63021 625.046C7.19106 622.301 17.4119 610.961 25.148 604.5C28.2541 601.906 30.4533 600.872 32.8628 600.872C35.1714 600.872 36.5591 600.262 37.2682 598.937C39.4227 594.912 38.6722 594.226 32.8188 594.87C29.8023 595.202 25.7789 595.292 23.8779 595.07C20.7859 594.709 20.2572 594.184 18.8625 590.091C13.9292 575.613 21.1279 539.175 32.9369 518.851C37.8838 510.337 40.8211 507.498 44.1124 508.048C45.4664 508.274 47.3526 506.719 50.3913 502.872C61.1554 489.241 83.6868 469.275 105.303 454.211C135.998 432.821 173.237 415.12 220.803 399.31C279.54 379.787 331.856 367.383 448.303 345.371C452.428 344.592 462.778 342.796 471.303 341.382C479.828 339.967 495.803 337.258 506.803 335.361C537.437 330.078 554.896 327.241 577.303 323.903C588.578 322.223 604.778 319.733 613.303 318.369C642.261 313.737 675.774 309.016 684.303 308.367C689.545 307.969 699.039 308.325 709.068 309.296C733.45 311.658 732.026 311.855 742.639 304.649C794.358 269.533 804.008 263.036 816.147 255.163C823.108 250.648 832.272 244.798 836.511 242.163C840.75 239.528 851.1 233.069 859.511 227.81C881.37 214.143 909.876 196.644 916.303 192.948C919.328 191.208 924.953 187.799 928.803 185.371C932.653 182.943 936.15 180.937 936.573 180.914C936.997 180.891 939.205 179.696 941.48 178.26C955.64 169.321 1014.41 136.491 1056.3 114.121C1082.13 100.328 1121.28 81.2097 1140.8 72.8546C1177.84 57.0037 1236.34 42.0256 1292.8 33.9332C1304.35 32.278 1319.91 29.3621 1327.37 27.4534C1350.1 21.6349 1380.53 17.3874 1417.3 14.8969C1425.83 14.3196 1436.18 13.6145 1440.3 13.3301C1450.26 12.6437 1480.17 11.2377 1527.8 9.21799C1558.57 7.91333 1593.19 7.54389 1691.8 7.4679C1839 7.35447 1862.63 7.74324 1988.3 12.3458C2060.92 15.0054 2201.79 23.0551 2217.34 25.4334C2220.01 25.8425 2222.05 25.3135 2225.73 23.258C2229.5 21.1507 2232.58 20.3769 2239.48 19.8052L2248.38 19.0683L2252.59 14.2311C2262.61 2.73065 2268.13 -0.493535 2276.86 0.058965C2281.41 0.346695 2281.83 0.589047 2282.12 3.10331C2282.29 4.60576 2281.23 10.0873 2279.75 15.2846L2277.07 24.7342L2279.39 28.0529C2280.66 29.8782 2282.13 31.6638 2282.65 32.021C2284.15 33.0525 2310.05 37.6619 2318.3 38.3662C2350.91 41.1492 2457.81 57.7258 2481.16 63.621C2488.82 65.5556 2490.3 66.8722 2490.3 71.7472C2490.3 75.5376 2489.65 76.7159 2479.8 90.81C2477.33 94.3511 2475.3 97.6705 2475.3 98.1864C2475.3 98.7023 2482.4 106.38 2491.08 115.248C2526.59 151.529 2560.57 192.168 2598.54 243.758C2606.38 254.42 2613.52 264.06 2614.4 265.179C2616 267.211 2616 267.211 2620.78 264.542C2627.53 260.766 2630.92 261.025 2635.87 265.695C2647.25 276.413 2647.81 279.899 2639.38 287.62L2633.46 293.046L2636.43 298.091C2638.07 300.866 2641.13 305.214 2643.23 307.754C2645.34 310.294 2651.66 319.018 2657.27 327.142C2668.53 343.441 2668.51 343.37 2673.21 369.872C2678.3 398.571 2682.22 453.709 2679.65 460.406C2678.86 462.482 2669.77 466.848 2666.22 466.862C2664.8 466.867 2663.43 467.079 2663.18 467.333C2662.92 467.587 2663.05 471.749 2663.47 476.583C2664.88 493.038 2667.3 537.075 2667.3 546.317C2667.3 554.841 2667.52 555.861 2670.25 559.974C2674.17 565.898 2687.93 580.636 2690.09 581.231C2691.03 581.491 2693.86 581.982 2696.37 582.322C2700.36 582.861 2701.42 583.559 2704.63 587.775C2709.92 594.704 2710.71 602.099 2709.16 630.034C2708.08 649.524 2708.14 652.999 2709.74 664.701C2710.72 671.854 2711.19 678.241 2710.79 678.895C2710.39 679.548 2710.12 683.135 2710.19 686.865C2710.3 692.091 2709.99 693.779 2708.82 694.228C2707.99 694.547 2707.3 695.862 2707.3 697.149C2707.3 698.436 2705.73 702.105 2703.8 705.302C2701.62 708.929 2700.3 712.399 2700.3 714.533C2700.3 718.77 2697.69 723.999 2692.64 729.872C2690.51 732.347 2687.42 736.38 2685.78 738.836C2677.74 750.881 2663.85 763.555 2653.89 767.92C2642.26 773.02 2586.45 783.175 2546.8 787.404C2538.55 788.284 2525.5 789.849 2517.8 790.881C2510.1 791.913 2495.93 793.708 2486.3 794.87C2476.68 796.031 2464.53 797.628 2459.3 798.419C2454.08 799.21 2436.3 801.216 2419.8 802.878C2403.3 804.541 2387.18 806.37 2383.98 806.944C2377.31 808.137 2375.76 807.43 2374.52 802.619C2373.82 799.914 2373.05 799.433 2366.77 797.75C2362.94 796.723 2358.37 795.602 2356.62 795.257C2353.07 794.559 2353.68 793.128 2351.27 807.872C2345.65 842.213 2328.04 879.805 2304.89 906.872C2299.27 913.443 2283.82 928.37 2276.3 934.483C2261.96 946.151 2240.95 958.937 2228.8 963.385C2226.05 964.392 2223.35 965.542 2222.8 965.941C2221.56 966.844 2209.11 971.063 2199.8 973.74C2185.09 977.968 2176.22 979.108 2154.04 979.616C2124.85 980.284 2112.7 978.71 2087.3 970.974C2050.12 959.645 2018.84 939.183 1991.62 908.367C1979.32 894.437 1969.57 879.542 1960.86 861.372C1953.06 845.107 1949.78 835.517 1944.46 813.393C1943.79 810.638 1943.44 810.438 1939.77 810.711C1937.59 810.873 1931.75 811.766 1926.8 812.695C1918.3 814.291 1917.79 814.532 1917.49 817.043C1917.33 818.506 1916.54 819.952 1915.74 820.258C1913.72 821.034 1826.57 823.397 1727.3 825.369C1712.18 825.67 1678.43 826.342 1652.3 826.864C1541.61 829.073 1519.64 829.478 1461.3 830.378C1442.88 830.663 1419.03 831.111 1408.3 831.374C1397.58 831.637 1375.08 832.086 1358.3 832.371C1341.53 832.656 1318.8 833.124 1307.8 833.412C1296.8 833.7 1250.23 834.595 1204.3 835.401C1046.06 838.179 1019.22 838.728 914.303 841.34C903.028 841.621 880.303 842.109 863.803 842.425C847.303 842.74 821.215 843.391 805.829 843.871C776.407 844.789 775.303 844.664 775.303 840.431C775.303 838.475 774.12 837.931 764.523 835.473C747.535 831.121 735.303 830.553 735.303 834.115C735.303 836.399 727.466 855.632 722.566 865.372C711.877 886.619 703.147 898.54 683.803 918.3C672.148 930.206 666.214 935.159 651.98 944.861C642.464 951.347 623.367 962.159 619.303 963.361C617.928 963.768 613.061 965.634 608.488 967.508C597.501 972.011 580.111 976.684 568.146 978.35C557.911 979.775 532.844 980.898 525.303 980.268Z" fill="#1E5A7A"/>
</svg>
